<svg width="19" height="19" viewBox="0 0 19 19" fill="none" xmlns="http://www.w3.org/2000/svg">
<path d="M2.58178 16.7258C2.13976 16.7258 1.76563 16.5727 1.45938 16.2665C1.15313 15.9602 1 15.5861 1 15.1441V3.43262C1 2.9906 1.15313 2.61647 1.45938 2.31022C1.76563 2.00397 2.13976 1.85084 2.58178 1.85084H3.79322V0H5.13941V1.85084H11.7693V0H13.0818V1.85084H14.2932C14.7352 1.85084 15.1094 2.00397 15.4156 2.31022C15.7219 2.61647 15.875 2.9906 15.875 3.43262V15.1441C15.875 15.5861 15.7219 15.9602 15.4156 16.2665C15.1094 16.5727 14.7352 16.7258 14.2932 16.7258H2.58178ZM2.58178 15.4133H14.2932C14.3606 15.4133 14.4223 15.3853 14.4783 15.3291C14.5344 15.2731 14.5625 15.2114 14.5625 15.1441V6.93262H2.3125V15.1441C2.3125 15.2114 2.34057 15.2731 2.39672 15.3291C2.45272 15.3853 2.51441 15.4133 2.58178 15.4133ZM2.3125 5.62012H14.5625V3.43262C14.5625 3.36525 14.5344 3.30356 14.4783 3.24756C14.4223 3.19142 14.3606 3.16334 14.2932 3.16334H2.58178C2.51441 3.16334 2.45272 3.19142 2.39672 3.24756C2.34057 3.30356 2.3125 3.36525 2.3125 3.43262V5.62012Z" fill="black"/>
</svg>
