<svg width="148" height="148" viewBox="0 0 148 148" fill="none" xmlns="http://www.w3.org/2000/svg">
<path d="M34.5337 140C31.0312 140 28.0667 138.784 25.64 136.353C23.2133 133.921 22 130.95 22 127.441V20.5591C22 17.0495 23.2133 14.0789 25.64 11.6474C28.0667 9.21579 31.0312 8 34.5337 8H89.6L126 44.4737V127.441C126 130.95 124.787 133.921 122.36 136.353C119.933 138.784 116.969 140 113.466 140H34.5337ZM84.4 49.6842V18.4211H34.5337C33.9999 18.4211 33.5111 18.6439 33.0673 19.0897C32.6224 19.5344 32.4 20.0242 32.4 20.5591V127.441C32.4 127.976 32.6224 128.466 33.0673 128.91C33.5111 129.356 33.9999 129.579 34.5337 129.579H113.466C114 129.579 114.489 129.356 114.933 128.91C115.378 128.466 115.6 127.976 115.6 127.441V49.6842H84.4Z" fill="#FDD046"/>
</svg>
