<svg width="19" height="19" viewBox="0 0 19 19" fill="none" xmlns="http://www.w3.org/2000/svg">
<mask id="mask0_46_79" style="mask-type:alpha" maskUnits="userSpaceOnUse" x="-1" y="-1" width="21" height="21">
<rect x="-1" y="-1" width="21" height="21" fill="#FDD046"/>
</mask>
<g mask="url(#mask0_46_79)">
<path d="M2.51928 16.8125C2.07726 16.8125 1.70313 16.6594 1.39688 16.3531C1.09063 16.0469 0.9375 15.6727 0.9375 15.2307V1.76928C0.9375 1.32726 1.09063 0.953125 1.39688 0.646875C1.70313 0.340625 2.07726 0.1875 2.51928 0.1875H9.46875L14.0625 4.78125V15.2307C14.0625 15.6727 13.9094 16.0469 13.6031 16.3531C13.2969 16.6594 12.9227 16.8125 12.4807 16.8125H2.51928ZM8.8125 5.4375V1.5H2.51928C2.45191 1.5 2.39022 1.52807 2.33422 1.58422C2.27807 1.64022 2.25 1.70191 2.25 1.76928V15.2307C2.25 15.2981 2.27807 15.3598 2.33422 15.4158C2.39022 15.4719 2.45191 15.5 2.51928 15.5H12.4807C12.5481 15.5 12.6098 15.4719 12.6658 15.4158C12.7219 15.3598 12.75 15.2981 12.75 15.2307V5.4375H8.8125Z" fill="black"/>
</g>
</svg>
