<svg width="19" height="19" viewBox="0 0 19 19" fill="none" xmlns="http://www.w3.org/2000/svg">
<path d="M14.8125 16.0938V18.5563H16.0438V16.0938H18.5063V14.8625H16.0438V12.4H14.8125V14.8625H12.35V16.0938H14.8125Z" fill="#AEAEAE"/>
<path fill-rule="evenodd" clip-rule="evenodd" d="M3.40147 15.6155C3.66912 15.8718 3.99609 16 4.3824 16H9H10H11V14.9014H4.3824C4.32351 14.9014 4.2696 14.8779 4.22066 14.8309C4.17159 14.784 4.14706 14.7324 4.14706 14.676V7.8028H14.8529V11H16V4.8732C16 4.50322 15.8662 4.19006 15.5985 3.93372C15.3309 3.67738 15.0039 3.54921 14.6176 3.54921H13.5589V2H12.4118V3.54921H6.61763V2H5.44113V3.54921H4.3824C3.99609 3.54921 3.66912 3.67738 3.40147 3.93372C3.13382 4.19006 3 4.50322 3 4.8732V7V8V14.676C3 15.046 3.13382 15.3591 3.40147 15.6155ZM14.8529 6.7042H4.14706V4.8732C4.14706 4.81681 4.17159 4.76517 4.22066 4.7183C4.2696 4.6713 4.32351 4.64781 4.3824 4.64781H14.6176C14.6765 4.64781 14.7304 4.6713 14.7793 4.7183C14.8284 4.76517 14.8529 4.81681 14.8529 4.8732V6.7042Z" fill="#AEAEAE"/>
<path d="M9.0213 10.3739C9.15321 10.5002 9.31278 10.5634 9.50001 10.5634C9.68723 10.5634 9.8468 10.5002 9.97871 10.3739C10.1105 10.2477 10.1764 10.0948 10.1764 9.91539C10.1764 9.73607 10.1105 9.58324 9.97871 9.4569C9.8468 9.33069 9.68723 9.26758 9.50001 9.26758C9.31278 9.26758 9.15321 9.33069 9.0213 9.4569C8.88952 9.58324 8.82362 9.73607 8.82362 9.91539C8.82362 10.0948 8.88952 10.2477 9.0213 10.3739Z" fill="#AEAEAE"/>
<path d="M5.96248 10.3739C6.09439 10.5002 6.25396 10.5634 6.44118 10.5634C6.62841 10.5634 6.78798 10.5002 6.91989 10.3739C7.05167 10.2477 7.11757 10.0948 7.11757 9.91539C7.11757 9.73607 7.05167 9.58324 6.91989 9.4569C6.78798 9.33069 6.62841 9.26758 6.44118 9.26758C6.25396 9.26758 6.09439 9.33069 5.96248 9.4569C5.83069 9.58324 5.7648 9.73607 5.7648 9.91539C5.7648 10.0948 5.83069 10.2477 5.96248 10.3739Z" fill="#AEAEAE"/>
<path d="M12.0801 10.3739C12.212 10.5002 12.3716 10.5634 12.5588 10.5634C12.7461 10.5634 12.9056 10.5002 13.0375 10.3739C13.1693 10.2477 13.2352 10.0948 13.2352 9.91539C13.2352 9.73607 13.1693 9.58324 13.0375 9.4569C12.9056 9.33069 12.7461 9.26758 12.5588 9.26758C12.3716 9.26758 12.212 9.33069 12.0801 9.4569C11.9483 9.58324 11.8824 9.73607 11.8824 9.91539C11.8824 10.0948 11.9483 10.2477 12.0801 10.3739Z" fill="#AEAEAE"/>
<path d="M9.0213 13.2471C9.15321 13.3734 9.31278 13.4366 9.50001 13.4366C9.68723 13.4366 9.8468 13.3734 9.97871 13.2471C10.1105 13.1209 10.1764 12.9681 10.1764 12.7888C10.1764 12.6093 10.1105 12.4565 9.97871 12.3303C9.8468 12.2039 9.68723 12.1408 9.50001 12.1408C9.31278 12.1408 9.15321 12.2039 9.0213 12.3303C8.88952 12.4565 8.82362 12.6093 8.82362 12.7888C8.82362 12.9681 8.88952 13.1209 9.0213 13.2471Z" fill="#AEAEAE"/>
<path d="M5.96248 13.2471C6.09439 13.3734 6.25396 13.4366 6.44118 13.4366C6.62841 13.4366 6.78798 13.3734 6.91989 13.2471C7.05167 13.1209 7.11757 12.9681 7.11757 12.7888C7.11757 12.6093 7.05167 12.4565 6.91989 12.3303C6.78798 12.2039 6.62841 12.1408 6.44118 12.1408C6.25396 12.1408 6.09439 12.2039 5.96248 12.3303C5.83069 12.4565 5.7648 12.6093 5.7648 12.7888C5.7648 12.9681 5.83069 13.1209 5.96248 13.2471Z" fill="#AEAEAE"/>
<path d="M12.0801 13.2471C12.212 13.3734 12.3716 13.4366 12.5588 13.4366C12.7461 13.4366 12.9056 13.3734 13.0375 13.2471C13.1693 13.1209 13.2352 12.9681 13.2352 12.7888C13.2352 12.6093 13.1693 12.4565 13.0375 12.3303C12.9056 12.2039 12.7461 12.1408 12.5588 12.1408C12.3716 12.1408 12.212 12.2039 12.0801 12.3303C11.9483 12.4565 11.8824 12.6093 11.8824 12.7888C11.8824 12.9681 11.9483 13.1209 12.0801 13.2471Z" fill="#AEAEAE"/>
</svg>
