<svg width="19" height="19" viewBox="0 0 19 19" fill="none" xmlns="http://www.w3.org/2000/svg">
<path d="M4.3824 16C3.99609 16 3.66912 15.8718 3.40147 15.6155C3.13382 15.3592 3 15.046 3 14.676V4.8732C3 4.50322 3.13382 4.19006 3.40147 3.93372C3.66912 3.67738 3.99609 3.54921 4.3824 3.54921H5.44113V2H6.61763V3.54921H12.4118V2H13.5589V3.54921H14.6176C15.0039 3.54921 15.3309 3.67738 15.5985 3.93372C15.8662 4.19006 16 4.50322 16 4.8732V14.676C16 15.046 15.8662 15.3592 15.5985 15.6155C15.3309 15.8718 15.0039 16 14.6176 16H4.3824ZM4.3824 14.9014H14.6176C14.6765 14.9014 14.7304 14.8779 14.7793 14.8309C14.8284 14.784 14.8529 14.7324 14.8529 14.676V7.8028H4.14706V14.676C4.14706 14.7324 4.17159 14.784 4.22066 14.8309C4.2696 14.8779 4.32351 14.9014 4.3824 14.9014ZM4.14706 6.7042H14.8529V4.8732C14.8529 4.81681 14.8284 4.76517 14.7793 4.7183C14.7304 4.6713 14.6765 4.64781 14.6176 4.64781H4.3824C4.32351 4.64781 4.2696 4.6713 4.22066 4.7183C4.17159 4.76517 4.14706 4.81681 4.14706 4.8732V6.7042Z" fill="#AEAEAE"/>
<circle cx="7" cy="10.5" r="1.5" fill="#AEAEAE"/>
</svg>
