<svg width="19" height="19" viewBox="0 0 19 19" fill="none" xmlns="http://www.w3.org/2000/svg">
<mask id="mask0_46_10" style="mask-type:alpha" maskUnits="userSpaceOnUse" x="0" y="0" width="19" height="18">
<rect x="0.5" width="18" height="18" fill="#E3E3E3"/>
</mask>
<g mask="url(#mask0_46_10)">
<path d="M9.5 17.7884L4.41725 13.9765C4.249 13.8534 4.11656 13.6952 4.01994 13.5019C3.92331 13.3087 3.875 13.1053 3.875 12.8918V4.23081C3.875 3.85194 4.00625 3.53125 4.26875 3.26875C4.53125 3.00625 4.85194 2.875 5.23081 2.875H13.7692C14.1481 2.875 14.4688 3.00625 14.7313 3.26875C14.9938 3.53125 15.125 3.85194 15.125 4.23081V12.8918C15.125 13.1053 15.0767 13.3087 14.9801 13.5019C14.8834 13.6952 14.751 13.8534 14.5828 13.9765L9.5 17.7884ZM9.5 16.375L13.9062 13.0722C13.9351 13.0481 13.9579 13.0204 13.9747 12.9891C13.9916 12.9579 14 12.9231 14 12.8847V4.23081C14 4.17306 13.9759 4.12019 13.9278 4.07219C13.8798 4.02406 13.8269 4 13.7692 4H5.23081C5.17306 4 5.12019 4.02406 5.07219 4.07219C5.02406 4.12019 5 4.17306 5 4.23081V12.8847C5 12.9231 5.00844 12.9579 5.02531 12.9891C5.04206 13.0204 5.06488 13.0481 5.09375 13.0722L9.5 16.375ZM8.7125 11.9903L12.6903 8.0125L11.9 7.19913L8.7125 10.3866L7.12306 8.79719L6.30969 9.5875L8.7125 11.9903Z" fill="#AEAEAE"/>
</g>
</svg>
