<svg width="19" height="19" viewBox="0 0 19 19" fill="none" xmlns="http://www.w3.org/2000/svg">
<path d="M6.05754 14.9161V7.53031C6.05754 7.17617 6.18478 6.87553 6.43926 6.62838C6.69374 6.38113 6.99805 6.2575 7.35219 6.2575H14.7162C15.0703 6.2575 15.3729 6.3829 15.6238 6.63371C15.8746 6.88464 16 7.18717 16 7.54131V12.854L12.654 16.2H7.34136C6.98722 16.2 6.68469 16.0745 6.43376 15.8237C6.18295 15.5728 6.05754 15.2703 6.05754 14.9161ZM2.52442 5.49264C2.45802 5.1385 2.52703 4.81939 2.73144 4.53532C2.93573 4.25125 3.21501 4.07601 3.56927 4.00961L10.8376 2.72437C11.1917 2.65797 11.5108 2.72698 11.7949 2.93139C12.0789 3.13568 12.2542 3.41496 12.3208 3.76922L12.4846 4.70061H11.3975L11.2596 3.92208C11.2505 3.87202 11.2231 3.83219 11.1776 3.8026C11.1321 3.77301 11.082 3.76277 11.0274 3.77188L3.7564 5.06387C3.6926 5.07298 3.64478 5.10257 3.61294 5.15264C3.5811 5.20271 3.56968 5.25964 3.57868 5.32344L4.50066 10.531V13.6952C4.32489 13.6024 4.17463 13.4751 4.04988 13.3134C3.92524 13.1519 3.84517 12.9678 3.80966 12.7611L2.52442 5.49264ZM7.12281 7.54131V14.9161C7.12281 14.9799 7.14328 15.0323 7.18424 15.0733C7.22519 15.1142 7.27757 15.1347 7.34136 15.1347H12.094V12.294H14.9347V7.54131C14.9347 7.47752 14.9143 7.42514 14.8733 7.38419C14.8324 7.34324 14.78 7.32276 14.7162 7.32276H7.34136C7.27757 7.32276 7.22519 7.34324 7.18424 7.38419C7.14328 7.42514 7.12281 7.47752 7.12281 7.54131Z" fill="#AEAEAE"/>
</svg>
