<svg width="19" height="19" viewBox="0 0 19 19" fill="none" xmlns="http://www.w3.org/2000/svg">
<path d="M5.68931 14.6686V7.00926C5.68931 6.642 5.82126 6.33023 6.08516 6.07393C6.34907 5.81751 6.66465 5.68931 7.03191 5.68931H14.6686C15.0359 5.68931 15.3496 5.81936 15.6099 6.07945C15.87 6.33968 16 6.65342 16 7.02067V12.5301L12.5301 16H7.02067C6.65342 16 6.33968 15.87 6.07945 15.6099C5.81936 15.3496 5.68931 15.0359 5.68931 14.6686ZM2.02533 4.89612C1.95647 4.52886 2.02803 4.19794 2.24001 3.90335C2.45187 3.60875 2.74149 3.42703 3.10887 3.35817L10.6464 2.02533C11.0136 1.95647 11.3445 2.02803 11.6391 2.24001C11.9337 2.45187 12.1155 2.74149 12.1845 3.10887L12.3544 4.07476H11.2271L11.084 3.2674C11.0746 3.21548 11.0462 3.17417 10.9989 3.14348C10.9518 3.1128 10.8999 3.10218 10.8432 3.11163L3.30293 4.45147C3.23677 4.46092 3.18718 4.49161 3.15416 4.54353C3.12114 4.59545 3.1093 4.65449 3.11863 4.72065L4.07476 10.1211V13.4024C3.89248 13.3062 3.73666 13.1743 3.60728 13.0066C3.47803 12.839 3.39499 12.6481 3.35817 12.4338L2.02533 4.89612ZM6.79402 7.02067V14.6686C6.79402 14.7348 6.81526 14.7891 6.85773 14.8316C6.9002 14.874 6.95451 14.8953 7.02067 14.8953H11.9494V11.9494H14.8953V7.02067C14.8953 6.95451 14.874 6.9002 14.8316 6.85773C14.7891 6.81526 14.7348 6.79402 14.6686 6.79402H7.02067C6.95451 6.79402 6.9002 6.81526 6.85773 6.85773C6.81526 6.9002 6.79402 6.95451 6.79402 7.02067Z" fill="#AEAEAE"/>
</svg>
