<svg width="19" height="19" viewBox="0 0 19 19" fill="none" xmlns="http://www.w3.org/2000/svg">
<path d="M4.3824 16C3.99609 16 3.66912 15.8718 3.40147 15.6155C3.13382 15.3592 3 15.046 3 14.676V4.8732C3 4.50322 3.13382 4.19006 3.40147 3.93372C3.66912 3.67738 3.99609 3.54921 4.3824 3.54921H5.44113V2H6.61763V3.54921H12.4118V2H13.5589V3.54921H14.6176C15.0039 3.54921 15.3309 3.67738 15.5985 3.93372C15.8662 4.19006 16 4.50322 16 4.8732V14.676C16 15.046 15.8662 15.3592 15.5985 15.6155C15.3309 15.8718 15.0039 16 14.6176 16H4.3824ZM4.3824 14.9014H14.6176C14.6765 14.9014 14.7304 14.8779 14.7793 14.8309C14.8284 14.784 14.8529 14.7324 14.8529 14.676V7.8028H4.14706V14.676C4.14706 14.7324 4.17159 14.784 4.22066 14.8309C4.2696 14.8779 4.32351 14.9014 4.3824 14.9014ZM4.14706 6.7042H14.8529V4.8732C14.8529 4.81681 14.8284 4.76517 14.7793 4.7183C14.7304 4.6713 14.6765 4.64781 14.6176 4.64781H4.3824C4.32351 4.64781 4.2696 4.6713 4.22066 4.7183C4.17159 4.76517 4.14706 4.81681 4.14706 4.8732V6.7042ZM9.5 10.5634C9.31277 10.5634 9.15321 10.5002 9.02129 10.3739C8.88951 10.2477 8.82362 10.0948 8.82362 9.91541C8.82362 9.73609 8.88951 9.58326 9.02129 9.45693C9.15321 9.33071 9.31277 9.2676 9.5 9.2676C9.68723 9.2676 9.84679 9.33071 9.97871 9.45693C10.1105 9.58326 10.1764 9.73609 10.1764 9.91541C10.1764 10.0948 10.1105 10.2477 9.97871 10.3739C9.84679 10.5002 9.68723 10.5634 9.5 10.5634ZM6.44118 10.5634C6.25395 10.5634 6.09438 10.5002 5.96247 10.3739C5.83069 10.2477 5.76479 10.0948 5.76479 9.91541C5.76479 9.73609 5.83069 9.58326 5.96247 9.45693C6.09438 9.33071 6.25395 9.2676 6.44118 9.2676C6.6284 9.2676 6.78797 9.33071 6.91988 9.45693C7.05167 9.58326 7.11756 9.73609 7.11756 9.91541C7.11756 10.0948 7.05167 10.2477 6.91988 10.3739C6.78797 10.5002 6.6284 10.5634 6.44118 10.5634ZM12.5588 10.5634C12.3716 10.5634 12.212 10.5002 12.0801 10.3739C11.9483 10.2477 11.8824 10.0948 11.8824 9.91541C11.8824 9.73609 11.9483 9.58326 12.0801 9.45693C12.212 9.33071 12.3716 9.2676 12.5588 9.2676C12.746 9.2676 12.9056 9.33071 13.0375 9.45693C13.1693 9.58326 13.2352 9.73609 13.2352 9.91541C13.2352 10.0948 13.1693 10.2477 13.0375 10.3739C12.9056 10.5002 12.746 10.5634 12.5588 10.5634ZM9.5 13.4366C9.31277 13.4366 9.15321 13.3734 9.02129 13.2471C8.88951 13.1209 8.82362 12.9681 8.82362 12.7888C8.82362 12.6094 8.88951 12.4565 9.02129 12.3303C9.15321 12.204 9.31277 12.1408 9.5 12.1408C9.68723 12.1408 9.84679 12.204 9.97871 12.3303C10.1105 12.4565 10.1764 12.6094 10.1764 12.7888C10.1764 12.9681 10.1105 13.1209 9.97871 13.2471C9.84679 13.3734 9.68723 13.4366 9.5 13.4366ZM6.44118 13.4366C6.25395 13.4366 6.09438 13.3734 5.96247 13.2471C5.83069 13.1209 5.76479 12.9681 5.76479 12.7888C5.76479 12.6094 5.83069 12.4565 5.96247 12.3303C6.09438 12.204 6.25395 12.1408 6.44118 12.1408C6.6284 12.1408 6.78797 12.204 6.91988 12.3303C7.05167 12.4565 7.11756 12.6094 7.11756 12.7888C7.11756 12.9681 7.05167 13.1209 6.91988 13.2471C6.78797 13.3734 6.6284 13.4366 6.44118 13.4366ZM12.5588 13.4366C12.3716 13.4366 12.212 13.3734 12.0801 13.2471C11.9483 13.1209 11.8824 12.9681 11.8824 12.7888C11.8824 12.6094 11.9483 12.4565 12.0801 12.3303C12.212 12.204 12.3716 12.1408 12.5588 12.1408C12.746 12.1408 12.9056 12.204 13.0375 12.3303C13.1693 12.4565 13.2352 12.6094 13.2352 12.7888C13.2352 12.9681 13.1693 13.1209 13.0375 13.2471C12.9056 13.3734 12.746 13.4366 12.5588 13.4366Z" fill="#AEAEAE"/>
</svg>
