<svg width="19" height="19" viewBox="0 0 19 19" fill="none" xmlns="http://www.w3.org/2000/svg">
<path d="M7.20588 16C6.03754 16 5.0445 15.5911 4.22678 14.7732C3.40893 13.9555 3 12.9625 3 11.7941V7.20588C3 6.03754 3.40893 5.0445 4.22678 4.22678C5.0445 3.40893 6.03754 3 7.20588 3H11.7941C12.9625 3 13.9555 3.40893 14.7732 4.22678C15.5911 5.0445 16 6.03754 16 7.20588V11.7941C16 12.9625 15.5911 13.9555 14.7732 14.7732C13.9555 15.5911 12.9625 16 11.7941 16H7.20588ZM8.73529 12.294L13.0588 7.97059L12.2529 7.16478L8.73529 10.6824L7.05294 9.00007L6.24713 9.80588L8.73529 12.294ZM7.20588 14.8529H11.7941C12.6353 14.8529 13.3554 14.5534 13.9544 13.9544C14.5534 13.3554 14.8529 12.6353 14.8529 11.7941V7.20588C14.8529 6.36471 14.5534 5.64461 13.9544 5.04559C13.3554 4.44657 12.6353 4.14706 11.7941 4.14706H7.20588C6.36471 4.14706 5.64461 4.44657 5.04559 5.04559C4.44657 5.64461 4.14706 6.36471 4.14706 7.20588V11.7941C4.14706 12.6353 4.44657 13.3554 5.04559 13.9544C5.64461 14.5534 6.36471 14.8529 7.20588 14.8529Z" fill="#AEAEAE"/>
</svg>
