<svg width="19" height="19" viewBox="0 0 19 19" fill="none" xmlns="http://www.w3.org/2000/svg">
<mask id="mask0_415_54" style="mask-type:alpha" maskUnits="userSpaceOnUse" x="1" y="1" width="17" height="16">
<rect x="1.5" y="1" width="16" height="16" fill="#AEAEAE"/>
</mask>
<g mask="url(#mask0_415_54)">
<path d="M8.98463 11.4358L10.718 9.7025L12.4513 11.4358L13.1538 10.7333L11.4205 9L13.1538 7.26667L12.4513 6.56417L10.718 8.2975L8.98463 6.56417L8.28196 7.26667L10.0153 9L8.28196 10.7333L8.98463 11.4358ZM7.55763 14C7.36685 14 7.18607 13.9579 7.01529 13.8737C6.84463 13.7894 6.70407 13.673 6.59363 13.5243L3.16663 9L6.59363 4.47567C6.70407 4.327 6.84463 4.21056 7.01529 4.12633C7.18607 4.04211 7.36685 4 7.55763 4H14.6281C14.9596 4 15.2433 4.118 15.4793 4.354C15.7153 4.59 15.8333 4.87372 15.8333 5.20517V12.7948C15.8333 13.1263 15.7153 13.41 15.4793 13.646C15.2433 13.882 14.9596 14 14.6281 14H7.55763ZM4.41663 9L7.39096 12.923C7.41229 12.9487 7.43685 12.9679 7.46463 12.9808C7.4924 12.9936 7.5234 13 7.55763 13H14.6281C14.688 13 14.7372 12.9808 14.7756 12.9423C14.8141 12.9039 14.8333 12.8547 14.8333 12.7948V5.20517C14.8333 5.14528 14.8141 5.09611 14.7756 5.05767C14.7372 5.01922 14.688 5 14.6281 5H7.55763C7.5234 5 7.4924 5.00639 7.46463 5.01917C7.43685 5.03206 7.41229 5.05133 7.39096 5.077L4.41663 9Z" fill="#AEAEAE"/>
</g>
</svg>
