<svg width="19" height="19" viewBox="0 0 19 19" fill="none" xmlns="http://www.w3.org/2000/svg">
<mask id="mask0_415_55" style="mask-type:alpha" maskUnits="userSpaceOnUse" x="2" y="2" width="15" height="15">
<rect x="2" y="2" width="15" height="15" fill="#AEAEAE"/>
</mask>
<g mask="url(#mask0_415_55)">
<path d="M13.9952 14.9807L9.52407 10.5094L7.81485 12.2187C7.90225 12.3749 7.96454 12.5406 8.00173 12.7157C8.03902 12.8908 8.05767 13.0689 8.05767 13.2499C8.05767 13.8779 7.83412 14.4155 7.38704 14.8627C6.93996 15.3099 6.40251 15.5335 5.7747 15.5335C5.14688 15.5335 4.60923 15.31 4.16173 14.8629C3.71423 14.4158 3.49048 13.8783 3.49048 13.2505C3.49048 12.6227 3.71407 12.0851 4.16126 11.6376C4.60845 11.1901 5.14605 10.9663 5.77407 10.9663C5.95511 10.9663 6.13319 10.9849 6.30829 11.0221C6.4834 11.0594 6.64907 11.1217 6.80532 11.2091L8.51439 9.4999L6.80532 7.79068C6.64907 7.87808 6.4834 7.94042 6.30829 7.97772C6.13319 8.0149 5.95511 8.0335 5.77407 8.0335C5.14605 8.0335 4.60845 7.80995 4.16126 7.36287C3.71407 6.91579 3.49048 6.37834 3.49048 5.75053C3.49048 5.12271 3.71402 4.58506 4.1611 4.13756C4.60819 3.69006 5.14563 3.46631 5.77345 3.46631C6.40126 3.46631 6.93892 3.6899 7.38642 4.13709C7.83392 4.58428 8.05767 5.12188 8.05767 5.7499C8.05767 5.93094 8.03902 6.10902 8.00173 6.28412C7.96454 6.45923 7.90225 6.6249 7.81485 6.78115L15.5095 14.4758V14.9807H13.9952ZM11.2549 8.77881L10.2452 7.76912L13.9952 4.01912H15.5095V4.52396L11.2549 8.77881ZM5.77407 7.096C6.14428 7.096 6.46121 6.96423 6.72485 6.70068C6.9884 6.43704 7.12017 6.12011 7.12017 5.7499C7.12017 5.37969 6.9884 5.06277 6.72485 4.79912C6.46121 4.53558 6.14428 4.40381 5.77407 4.40381C5.40386 4.40381 5.08694 4.53558 4.82329 4.79912C4.55965 5.06277 4.42782 5.37969 4.42782 5.7499C4.42782 6.12011 4.55965 6.43704 4.82329 6.70068C5.08694 6.96423 5.40386 7.096 5.77407 7.096ZM9.52407 9.65615C9.56574 9.65615 9.6022 9.64053 9.63345 9.60928C9.6647 9.57803 9.68032 9.54157 9.68032 9.4999C9.68032 9.45824 9.6647 9.42178 9.63345 9.39053C9.6022 9.35928 9.56574 9.34365 9.52407 9.34365C9.48241 9.34365 9.44595 9.35928 9.4147 9.39053C9.38345 9.42178 9.36782 9.45824 9.36782 9.4999C9.36782 9.54157 9.38345 9.57803 9.4147 9.60928C9.44595 9.64053 9.48241 9.65615 9.52407 9.65615ZM5.77407 14.596C6.14428 14.596 6.46121 14.4642 6.72485 14.2007C6.9884 13.937 7.12017 13.6201 7.12017 13.2499C7.12017 12.8797 6.9884 12.5628 6.72485 12.2991C6.46121 12.0356 6.14428 11.9038 5.77407 11.9038C5.40386 11.9038 5.08694 12.0356 4.82329 12.2991C4.55965 12.5628 4.42782 12.8797 4.42782 13.2499C4.42782 13.6201 4.55965 13.937 4.82329 14.2007C5.08694 14.4642 5.40386 14.596 5.77407 14.596Z" fill="#AEAEAE"/>
</g>
</svg>
