<svg width="19" height="19" viewBox="0 0 19 19" fill="none" xmlns="http://www.w3.org/2000/svg">
<path d="M4.93334 12.6592C4.58869 12.6592 4.29697 12.5398 4.05819 12.301C3.8194 12.0622 3.70001 11.7705 3.70001 11.4259V7.75234C3.70001 7.40769 3.8194 7.11597 4.05819 6.87719C4.29697 6.6384 4.58869 6.51901 4.93334 6.51901H14.0648C14.4095 6.51901 14.7012 6.6384 14.94 6.87719C15.1788 7.11597 15.2981 7.40769 15.2981 7.75234V11.4259C15.2981 11.7705 15.1788 12.0622 14.94 12.301C14.7012 12.5398 14.4095 12.6592 14.0648 12.6592H4.93334ZM4.93334 11.6358H14.0648C14.1174 11.6358 14.1654 11.6139 14.2091 11.5702C14.2529 11.5265 14.2748 11.4784 14.2748 11.4259V7.75234C14.2748 7.6998 14.2529 7.65171 14.2091 7.60804C14.1654 7.56426 14.1174 7.54238 14.0648 7.54238H4.93334C4.8808 7.54238 4.83271 7.56426 4.78904 7.60804C4.74527 7.65171 4.72338 7.6998 4.72338 7.75234V11.4259C4.72338 11.4784 4.74527 11.5265 4.78904 11.5702C4.83271 11.6139 4.8808 11.6358 4.93334 11.6358ZM3.70001 5.02336V4H15.2981V5.02336H3.70001ZM3.70001 15.1782V14.1548H15.2981V15.1782H3.70001Z" fill="#AEAEAE"/>
</svg>
