<svg width="19" height="19" viewBox="0 0 19 19" fill="none" xmlns="http://www.w3.org/2000/svg">
<path d="M11.3917 13.4397L12.7525 14.7982V14.8167H11.3757V13.4397H11.3917Z" fill="#AEAEAE"/>
<path d="M3.68634 5.74752L5.06035 7.11918V7.12435H3.68335V5.74752H3.68634Z" fill="#AEAEAE"/>
<path d="M6.24752 3.18335H7.62435V4.56035H6.24752V3.18335Z" fill="#AEAEAE"/>
<path d="M10.1885 3.18335H8.81152V4.56035H10.1885V3.18335Z" fill="#AEAEAE"/>
<path d="M11.3757 3.18335H12.7525V4.56035H11.3757V3.18335Z" fill="#AEAEAE"/>
<path d="M14.0897 3.18335H13.9397V4.56035H15.3167V4.41035C15.3167 4.07404 15.1952 3.78242 14.9564 3.54362C14.7176 3.30481 14.426 3.18335 14.0897 3.18335Z" fill="#AEAEAE"/>
<path d="M15.3167 5.74752H13.9397V7.12435H15.3167V5.74752Z" fill="#AEAEAE"/>
<path d="M3.68335 8.31152H5.06035V9.68852H3.68335V8.31152Z" fill="#AEAEAE"/>
<path d="M15.3167 8.31152H13.9397V9.68852H15.3167V8.31152Z" fill="#AEAEAE"/>
<path d="M3.68335 10.8757H5.06035V12.2525H3.68335V10.8757Z" fill="#AEAEAE"/>
<path d="M15.3167 10.8757H13.9397V12.2525H15.3167V10.8757Z" fill="#AEAEAE"/>
<path d="M3.68335 13.4397H5.06035V14.8167H4.91035C4.57404 14.8167 4.28242 14.6952 4.04362 14.4564C3.80481 14.2176 3.68335 13.926 3.68335 13.5897V13.4397Z" fill="#AEAEAE"/>
<path d="M7.62435 13.4397H6.24752V14.8167H7.62435V13.4397Z" fill="#AEAEAE"/>
<path d="M8.81152 13.4397H10.1885V14.8167H8.81152V13.4397Z" fill="#AEAEAE"/>
<rect width="1.0802" height="18.0913" transform="matrix(0.706503 -0.70771 -0.70771 -0.706503 15.0186 16.0295)" fill="#AEAEAE"/>
<path d="M11.5293 9.52927L12.5918 10.5918V6H8L9.0625 7.0625H11.5293V9.52927Z" fill="#AEAEAE"/>
<path d="M7.47073 8.47073L6.40823 7.40823L6.40823 12L11 12L9.9375 10.9375L7.47073 10.9375L7.47073 8.47073Z" fill="#AEAEAE"/>
</svg>
