<svg width="19" height="19" viewBox="0 0 19 19" fill="none" xmlns="http://www.w3.org/2000/svg">
<mask id="mask0_393_22" style="mask-type:alpha" maskUnits="userSpaceOnUse" x="0" y="0" width="19" height="19">
<rect width="19" height="19" fill="#AEAEAE"/>
</mask>
<g mask="url(#mask0_393_22)">
<path d="M9.5 12.4992L6.12018 9.11941L6.95459 8.26084L8.90625 10.2125V3.5625H10.0938V10.2125L12.0454 8.26084L12.8798 9.11941L9.5 12.4992ZM4.99364 15.4375C4.59371 15.4375 4.25521 15.299 3.97813 15.0219C3.70104 14.7448 3.5625 14.4063 3.5625 14.0064V11.8598H4.75V14.0064C4.75 14.0673 4.7754 14.1231 4.8262 14.1738C4.87686 14.2246 4.93268 14.25 4.99364 14.25H14.0064C14.0673 14.25 14.1231 14.2246 14.1738 14.1738C14.2246 14.1231 14.25 14.0673 14.25 14.0064V11.8598H15.4375V14.0064C15.4375 14.4063 15.299 14.7448 15.0219 15.0219C14.7448 15.299 14.4063 15.4375 14.0064 15.4375H4.99364Z" fill="#AEAEAE"/>
</g>
</svg>
