<svg width="19" height="19" viewBox="0 0 19 19" fill="none" xmlns="http://www.w3.org/2000/svg">
<path d="M9.80252 12.9439L16.6089 6.36896C16.6456 6.33348 16.664 6.29034 16.664 6.23956C16.664 6.18878 16.6456 6.14565 16.6089 6.11016L15.8117 5.34011C15.7748 5.30463 15.7302 5.28689 15.6778 5.28689C15.6252 5.28689 15.5805 5.30463 15.5438 5.34011L8.73746 11.915L9.80252 12.9439ZM4.66155 14.376C3.44315 14.31 2.52829 14.0482 1.91698 13.5907C1.30566 13.1331 1 12.4857 1 11.6485C1 10.8471 1.34819 10.197 2.04458 9.69827C2.74096 9.19954 3.70887 8.89741 4.9483 8.79189C5.54392 8.74216 5.99063 8.63816 6.28843 8.47987C6.5861 8.32159 6.73494 8.10243 6.73494 7.8224C6.73494 7.43381 6.53353 7.1373 6.13072 6.93284C5.72791 6.72839 5.06751 6.58152 4.14951 6.49222L4.26134 5.31261C5.5207 5.42829 6.45263 5.69058 7.05712 6.09948C7.66161 6.50838 7.96386 7.08269 7.96386 7.8224C7.96386 8.45039 7.71418 8.94833 7.21483 9.31621C6.71535 9.68395 5.99029 9.90489 5.03965 9.97902C4.10281 10.0551 3.40014 10.2317 2.93165 10.5087C2.46316 10.7857 2.22892 11.1656 2.22892 11.6485C2.22892 12.1407 2.42404 12.5068 2.81429 12.7468C3.20454 12.9867 3.83709 13.1341 4.71194 13.1888L4.66155 14.376ZM9.99464 14.4383L7.19025 11.7292L14.8411 4.34629C15.0826 4.11295 15.3649 3.99753 15.688 4.00004C16.0109 4.00255 16.2932 4.11796 16.5347 4.34629L17.6377 5.41154C17.8792 5.64501 18 5.91897 18 6.23343C18 6.54802 17.8792 6.82198 17.6377 7.05532L9.99464 14.4383ZM7.25805 14.9848C7.07316 15.0274 6.9104 14.9807 6.76976 14.8447C6.62898 14.7087 6.58064 14.5515 6.62475 14.373L7.19025 11.7292L9.99464 14.4383L7.25805 14.9848Z" fill="#AEAEAE"/>
</svg>
