<svg width="19" height="19" viewBox="0 0 19 19" fill="none" xmlns="http://www.w3.org/2000/svg">
<mask id="mask0_399_39" style="mask-type:alpha" maskUnits="userSpaceOnUse" x="1" y="1" width="17" height="17">
<rect x="1.5" y="1.25" width="16.5" height="16.5" fill="#AEAEAE"/>
</mask>
<g mask="url(#mask0_399_39)">
<path d="M7.7272 13.2812C7.3799 13.2812 7.08594 13.1609 6.84531 12.9203C6.60469 12.6797 6.48438 12.3857 6.48438 12.0384V4.21158C6.48438 3.86428 6.60469 3.57031 6.84531 3.32969C7.08594 3.08906 7.3799 2.96875 7.7272 2.96875H13.4915C13.8388 2.96875 14.1328 3.08906 14.3734 3.32969C14.6141 3.57031 14.7344 3.86428 14.7344 4.21158V12.0384C14.7344 12.3857 14.6141 12.6797 14.3734 12.9203C14.1328 13.1609 13.8388 13.2812 13.4915 13.2812H7.7272ZM7.7272 12.25H13.4915C13.5445 12.25 13.593 12.2279 13.637 12.1838C13.6811 12.1398 13.7031 12.0914 13.7031 12.0384V4.21158C13.7031 4.15864 13.6811 4.11017 13.637 4.06617C13.593 4.02206 13.5445 4 13.4915 4H7.7272C7.67427 4 7.6258 4.02206 7.5818 4.06617C7.53768 4.11017 7.51562 4.15864 7.51562 4.21158V12.0384C7.51562 12.0914 7.53768 12.1398 7.5818 12.1838C7.6258 12.2279 7.67427 12.25 7.7272 12.25ZM5.32095 15.6875C4.97365 15.6875 4.67969 15.5672 4.43906 15.3266C4.19844 15.0859 4.07812 14.792 4.07812 14.4447V5.58658H5.10938V14.4447C5.10938 14.4976 5.13143 14.5461 5.17555 14.5901C5.21955 14.6342 5.26802 14.6562 5.32095 14.6562H12.1165V15.6875H5.32095Z" fill="#AEAEAE"/>
</g>
</svg>
