<svg width="19" height="19" viewBox="0 0 19 19" fill="none" xmlns="http://www.w3.org/2000/svg">
<mask id="mask0_491_123" style="mask-type:alpha" maskUnits="userSpaceOnUse" x="1" y="1" width="17" height="17">
<rect x="1" y="1" width="17" height="17" fill="#AEAEAE"/>
</mask>
<g mask="url(#mask0_491_123)">
<path d="M4.0513 15.5208C3.69808 15.5208 3.39633 15.3957 3.14605 15.1456C2.89589 14.8953 2.77081 14.5935 2.77081 14.2403V12.1971H16.2291V14.2403C16.2291 14.5935 16.1041 14.8953 15.8539 15.1456C15.6036 15.3957 15.3019 15.5208 14.9487 15.5208H4.0513ZM3.83331 13.2596V14.2403C3.83331 14.3039 3.85374 14.3562 3.89458 14.397C3.93543 14.4379 3.98767 14.4583 4.0513 14.4583H14.9487C15.0123 14.4583 15.0645 14.4379 15.1054 14.397C15.1462 14.3562 15.1666 14.3039 15.1666 14.2403V13.2596H3.83331ZM9.49998 10.2492C9.07947 10.2492 8.75098 10.3673 8.51451 10.6034C8.27793 10.8395 7.85629 10.9575 7.2496 10.9575C6.64304 10.9575 6.22512 10.8395 5.99585 10.6034C5.76647 10.3673 5.44158 10.2492 5.02119 10.2492C4.60067 10.2492 4.27213 10.3673 4.03554 10.6034C3.79908 10.8395 3.3775 10.9575 2.77081 10.9575V9.89503C3.19133 9.89503 3.51988 9.77698 3.75646 9.54087C3.99292 9.30475 4.4145 9.1867 5.02119 9.1867C5.62776 9.1867 6.04573 9.30475 6.27512 9.54087C6.50438 9.77698 6.82921 9.89503 7.2496 9.89503C7.67012 9.89503 7.99867 9.77698 8.23525 9.54087C8.47183 9.30475 8.89341 9.1867 9.49998 9.1867C10.1065 9.1867 10.5281 9.30475 10.7647 9.54087C11.0013 9.77698 11.3298 9.89503 11.7504 9.89503C12.1708 9.89503 12.4933 9.77698 12.7181 9.54087C12.9429 9.30475 13.3586 9.1867 13.9651 9.1867C14.5718 9.1867 15.003 9.30475 15.2586 9.54087C15.5141 9.77698 15.8377 9.89503 16.2291 9.89503V10.9575C15.6225 10.9575 15.2104 10.8395 14.9929 10.6034C14.7755 10.3673 14.4565 10.2492 14.036 10.2492C13.6156 10.2492 13.2812 10.3673 13.0328 10.6034C12.7844 10.8395 12.3569 10.9575 11.7504 10.9575C11.1437 10.9575 10.722 10.8395 10.4854 10.6034C10.249 10.3673 9.92049 10.2492 9.49998 10.2492ZM2.77081 7.94712V7.37496C2.77081 6.13998 3.33748 5.1819 4.47081 4.50072C5.60415 3.81966 7.28054 3.47913 9.49998 3.47913C11.7194 3.47913 13.3958 3.81966 14.5291 4.50072C15.6625 5.1819 16.2291 6.13998 16.2291 7.37496V7.94712H2.77081ZM9.49998 4.54163C7.84531 4.54163 6.53991 4.74616 5.58378 5.15522C4.62753 5.5644 4.06582 6.14087 3.89866 6.88462H15.1013C14.9341 6.14087 14.3724 5.5644 13.4162 5.15522C12.46 4.74616 11.1546 4.54163 9.49998 4.54163Z" fill="#AEAEAE"/>
</g>
</svg>
