<svg width="19" height="19" viewBox="0 0 19 19" fill="none" xmlns="http://www.w3.org/2000/svg">
<path d="M9.326 13.0768C9.51633 13.0768 9.67711 13.0112 9.80833 12.8798C9.93956 12.7484 10.0052 12.5874 10.0052 12.397C10.0052 12.2067 9.93944 12.0459 9.808 11.9147C9.67656 11.7836 9.51567 11.718 9.32533 11.718C9.135 11.718 8.97422 11.7837 8.843 11.9152C8.71178 12.0466 8.64617 12.2075 8.64617 12.3978C8.64617 12.5882 8.71189 12.7489 8.84333 12.8802C8.97478 13.0113 9.13567 13.0768 9.326 13.0768ZM8.85383 10.6897H9.79233C9.80089 10.3616 9.84894 10.0994 9.9365 9.90317C10.0242 9.70706 10.2368 9.44706 10.5743 9.12317C10.8676 8.82994 11.0921 8.55917 11.248 8.31083C11.404 8.06261 11.482 7.76944 11.482 7.43133C11.482 6.85744 11.2758 6.40917 10.8635 6.0865C10.4511 5.76394 9.96322 5.60267 9.4 5.60267C8.84356 5.60267 8.38311 5.75117 8.01867 6.04817C7.65411 6.34517 7.39406 6.69494 7.2385 7.0975L8.09483 7.441C8.17606 7.21967 8.31494 7.00406 8.5115 6.79417C8.70806 6.58439 8.99994 6.4795 9.38717 6.4795C9.78117 6.4795 10.0724 6.58739 10.2608 6.80317C10.4494 7.01906 10.5437 7.25644 10.5437 7.51533C10.5437 7.74189 10.4791 7.94917 10.35 8.13717C10.221 8.32517 10.0565 8.50678 9.8565 8.682C9.41883 9.07689 9.14233 9.39189 9.027 9.627C8.91155 9.862 8.85383 10.2162 8.85383 10.6897ZM9.3345 15.6667C8.4585 15.6667 7.63511 15.5004 6.86433 15.168C6.09356 14.8356 5.42311 14.3844 4.853 13.8145C4.28289 13.2446 3.8315 12.5744 3.49883 11.804C3.16628 11.0336 3 10.2104 3 9.3345C3 8.4585 3.16622 7.63511 3.49867 6.86433C3.83111 6.09356 4.28228 5.42311 4.85217 4.853C5.42206 4.28289 6.09222 3.8315 6.86267 3.49883C7.63311 3.16628 8.45628 3 9.33217 3C10.2082 3 11.0316 3.16622 11.8023 3.49867C12.5731 3.83111 13.2436 4.28228 13.8137 4.85217C14.3838 5.42206 14.8352 6.09222 15.1678 6.86267C15.5004 7.63311 15.6667 8.45628 15.6667 9.33217C15.6667 10.2082 15.5004 11.0316 15.168 11.8023C14.8356 12.5731 14.3844 13.2436 13.8145 13.8137C13.2446 14.3838 12.5744 14.8352 11.804 15.1678C11.0336 15.5004 10.2104 15.6667 9.3345 15.6667ZM9.33333 14.6667C10.8222 14.6667 12.0833 14.15 13.1167 13.1167C14.15 12.0833 14.6667 10.8222 14.6667 9.33333C14.6667 7.84444 14.15 6.58333 13.1167 5.55C12.0833 4.51667 10.8222 4 9.33333 4C7.84444 4 6.58333 4.51667 5.55 5.55C4.51667 6.58333 4 7.84444 4 9.33333C4 10.8222 4.51667 12.0833 5.55 13.1167C6.58333 14.15 7.84444 14.6667 9.33333 14.6667Z" fill="#AEAEAE"/>
</svg>
