<svg width="19" height="19" viewBox="0 0 19 19" fill="none" xmlns="http://www.w3.org/2000/svg">
<path d="M6.72977 13.5405C6.37479 13.5405 6.07432 13.4176 5.82838 13.1716C5.58243 12.9257 5.45946 12.6252 5.45946 12.2702V4.27031C5.45946 3.91533 5.58243 3.61486 5.82838 3.36892C6.07432 3.12297 6.37479 3 6.72977 3H14.7297C15.0847 3 15.3851 3.12297 15.6311 3.36892C15.877 3.61486 16 3.91533 16 4.27031V12.2702C16 12.6252 15.877 12.9257 15.6311 13.1716C15.3851 13.4176 15.0847 13.5405 14.7297 13.5405H6.72977ZM6.72977 12.4865H14.7297C14.7838 12.4865 14.8333 12.4639 14.8783 12.4189C14.9234 12.3739 14.9459 12.3243 14.9459 12.2702V4.27031C14.9459 4.2162 14.9234 4.16666 14.8783 4.12169C14.8333 4.0766 14.7838 4.05405 14.7297 4.05405H6.72977C6.67566 4.05405 6.62612 4.0766 6.58115 4.12169C6.53606 4.16666 6.51351 4.2162 6.51351 4.27031V12.2702C6.51351 12.3243 6.53606 12.3739 6.58115 12.4189C6.62612 12.4639 6.67566 12.4865 6.72977 12.4865ZM4.27031 16C3.91533 16 3.61486 15.877 3.36892 15.6311C3.12297 15.3851 3 15.0847 3 14.7297V5.67572H4.05405V14.7297C4.05405 14.7838 4.0766 14.8333 4.12169 14.8783C4.16666 14.9234 4.2162 14.9459 4.27031 14.9459H13.3243V16H4.27031Z" fill="#AEAEAE"/>
<path d="M14 11H7.5L9.00816 9.04206L10.0389 10.3178L12 8.32197L14 11Z" fill="#AEAEAE"/>
</svg>
