<svg width="19" height="19" viewBox="0 0 19 19" fill="none" xmlns="http://www.w3.org/2000/svg">
<mask id="mask0_461_24" style="mask-type:alpha" maskUnits="userSpaceOnUse" x="0" y="-1" width="20" height="20">
<rect y="-1" width="20" height="20" fill="#AEAEAE"/>
</mask>
<g mask="url(#mask0_461_24)">
<path d="M4.25806 14.5C3.9121 14.5 3.61593 14.3775 3.36956 14.1326C3.12319 13.8877 3 13.5933 3 13.2493V5.74514C3 5.40116 3.12319 5.10764 3.36956 4.86458C3.61593 4.62153 3.9121 4.5 4.25806 4.5H11.5968C11.7931 4.5 11.979 4.5434 12.1545 4.63021C12.3302 4.71701 12.4821 4.84144 12.6102 5.00347L16 9.5L12.6102 13.9965C12.4821 14.1586 12.3302 14.283 12.1545 14.3698C11.979 14.4566 11.7931 14.5 11.5968 14.5H4.25806ZM4.25806 13.25H11.5968L14.4274 9.5L11.5968 5.75H4.25806V13.25Z" fill="#AEAEAE"/>
</g>
<rect x="5.5" y="8.21423" width="2.4" height="2.4" rx="1.2" fill="#AEAEAE"/>
<rect x="9.2334" y="8.21423" width="2.4" height="2.4" rx="1.2" fill="#AEAEAE"/>
</svg>
