<svg width="19" height="19" viewBox="0 0 19 19" fill="none" xmlns="http://www.w3.org/2000/svg">
<path d="M5.23688 14.5C4.89671 14.5 4.60553 14.382 4.36332 14.146C4.12111 13.91 4 13.6263 4 13.2948V5.70517C4 5.37372 4.12111 5.09 4.36332 4.854C4.60553 4.618 4.89671 4.5 5.23688 4.5H12.4934C12.6892 4.5 12.8748 4.54211 13.0501 4.62633C13.2252 4.71056 13.3695 4.827 13.4828 4.97567L17 9.5L13.4828 14.0243C13.3695 14.173 13.2252 14.2894 13.0501 14.3737C12.8748 14.4579 12.6892 14.5 12.4934 14.5H5.23688ZM5.23688 13.5H12.4934C12.5286 13.5 12.5604 13.4936 12.5889 13.4808C12.6174 13.4679 12.6426 13.4487 12.6645 13.423L15.7171 9.5L12.6645 5.577C12.6426 5.55133 12.6174 5.53206 12.5889 5.51917C12.5604 5.50639 12.5286 5.5 12.4934 5.5H5.23688C5.17542 5.5 5.12496 5.51922 5.0855 5.55767C5.04604 5.59611 5.02632 5.64528 5.02632 5.70517V13.2948C5.02632 13.3547 5.04604 13.4039 5.0855 13.4423C5.12496 13.4808 5.17542 13.5 5.23688 13.5Z" fill="#AEAEAE"/>
</svg>
