<svg width="19" height="19" viewBox="0 0 19 19" fill="none" xmlns="http://www.w3.org/2000/svg">
<path d="M9.4178 15L12.2179 7.89561H13.1997L16 15H15L14.288 13.1158H11.1298L10.4176 15H9.4178ZM4.4569 13.1824L3.79439 12.5312L6.921 9.45317C6.55833 9.0928 6.21359 8.6651 5.88676 8.17006C5.55983 7.67501 5.29079 7.17168 5.07964 6.66006H6.07946C6.26085 7.03392 6.48153 7.40777 6.7415 7.78163C7.00148 8.15538 7.2822 8.49552 7.58367 8.80204C8.03016 8.3593 8.4525 7.82173 8.85069 7.18934C9.24888 6.55695 9.53023 5.96867 9.69475 5.42452H3V4.49786H7.12297V3.5H8.06605V4.49786H12.189V5.42452H10.6498C10.4459 6.11828 10.1209 6.84354 9.67478 7.60031C9.2286 8.35709 8.7524 8.98104 8.24618 9.47217L9.79738 11.0331L9.44074 11.9848L7.58367 10.1136L4.4569 13.1824ZM11.4321 12.296H13.9856L12.7088 8.92559L11.4321 12.296Z" fill="#AEAEAE"/>
</svg>
