<svg width="19" height="19" viewBox="0 0 19 19" fill="none" xmlns="http://www.w3.org/2000/svg">
<mask id="mask0_455_156" style="mask-type:alpha" maskUnits="userSpaceOnUse" x="1" y="1" width="17" height="17">
<rect x="1" y="1" width="17" height="17" fill="#D9D9D9"/>
</mask>
<g mask="url(#mask0_455_156)">
<path d="M9.49992 16.2292C8.57731 16.2292 7.70665 16.0524 6.88794 15.6987C6.06922 15.345 5.35522 14.8634 4.74594 14.254C4.13654 13.6447 3.65499 12.9307 3.30129 12.112C2.9476 11.2933 2.77075 10.4226 2.77075 9.50004C2.77075 8.57012 2.9476 7.69763 3.30129 6.88257C3.65499 6.06752 4.13654 5.35535 4.74594 4.74606C5.35522 4.13666 6.06922 3.65511 6.88794 3.30142C7.70665 2.94772 8.57731 2.77087 9.49992 2.77087C10.4298 2.77087 11.3023 2.94772 12.1174 3.30142C12.9324 3.65511 13.6446 4.13666 14.2539 4.74606C14.8633 5.35535 15.3448 6.06752 15.6985 6.88257C16.0522 7.69763 16.2291 8.57012 16.2291 9.50004C16.2291 10.4226 16.0522 11.2933 15.6985 12.112C15.3448 12.9307 14.8633 13.6447 14.2539 14.254C13.6446 14.8634 12.9324 15.345 12.1174 15.6987C11.3023 16.0524 10.4298 16.2292 9.49992 16.2292ZM9.49992 15.1517C9.8614 14.6722 10.1656 14.1887 10.4126 13.701C10.6596 13.2133 10.8607 12.6802 11.0161 12.1017H7.98373C8.14818 12.6984 8.35165 13.2406 8.59414 13.7283C8.83651 14.2159 9.13843 14.6904 9.49992 15.1517ZM8.12823 14.9569C7.8567 14.5673 7.61286 14.1244 7.3967 13.6282C7.18054 13.1319 7.01255 12.6231 6.89272 12.1017H4.48988C4.864 12.8374 5.36573 13.4554 5.99508 13.9558C6.62444 14.4561 7.33549 14.7898 8.12823 14.9569ZM10.8716 14.9569C11.6643 14.7898 12.3754 14.4561 13.0048 13.9558C13.6341 13.4554 14.1358 12.8374 14.51 12.1017H12.1071C11.9645 12.6276 11.7851 13.1386 11.569 13.6349C11.3529 14.1312 11.1205 14.5719 10.8716 14.9569ZM4.04434 11.0392H6.67756C6.63306 10.776 6.60077 10.5179 6.5807 10.2649C6.56075 10.012 6.55077 9.75705 6.55077 9.50004C6.55077 9.24303 6.56075 8.98809 6.5807 8.73522C6.60077 8.48222 6.63306 8.2241 6.67756 7.96083H4.04434C3.97622 8.20143 3.92404 8.45159 3.88779 8.71131C3.85143 8.97103 3.83325 9.23394 3.83325 9.50004C3.83325 9.76614 3.85143 10.029 3.88779 10.2888C3.92404 10.5485 3.97622 10.7987 4.04434 11.0392ZM7.73989 11.0392H11.26C11.3043 10.776 11.3366 10.5202 11.3566 10.2718C11.3766 10.0234 11.3866 9.76614 11.3866 9.50004C11.3866 9.23394 11.3766 8.9767 11.3566 8.72831C11.3366 8.47992 11.3043 8.2241 11.26 7.96083H7.73989C7.6955 8.2241 7.66327 8.47992 7.6432 8.72831C7.62325 8.9767 7.61327 9.23394 7.61327 9.50004C7.61327 9.76614 7.62325 10.0234 7.6432 10.2718C7.66327 10.5202 7.6955 10.776 7.73989 11.0392ZM12.3223 11.0392H14.9555C15.0236 10.7987 15.0758 10.5485 15.112 10.2888C15.1484 10.029 15.1666 9.76614 15.1666 9.50004C15.1666 9.23394 15.1484 8.97103 15.112 8.71131C15.0758 8.45159 15.0236 8.20143 14.9555 7.96083H12.3223C12.3668 8.2241 12.3991 8.48222 12.4191 8.73522C12.4391 8.98809 12.4491 9.24303 12.4491 9.50004C12.4491 9.75705 12.4391 10.012 12.4191 10.2649C12.3991 10.5179 12.3668 10.776 12.3223 11.0392ZM12.1071 6.89833H14.51C14.1314 6.15364 13.633 5.53562 13.015 5.04427C12.397 4.55304 11.6825 4.21705 10.8716 4.03631C11.1431 4.44856 11.3847 4.89947 11.5962 5.38905C11.8079 5.87851 11.9782 6.3816 12.1071 6.89833ZM7.98373 6.89833H11.0161C10.8517 6.30617 10.6448 5.76057 10.3956 5.26155C10.1463 4.76253 9.84771 4.29149 9.49992 3.84843C9.15213 4.29149 8.85356 4.76253 8.60423 5.26155C8.35502 5.76057 8.14818 6.30617 7.98373 6.89833ZM4.48988 6.89833H6.89272C7.02164 6.3816 7.19193 5.87851 7.40361 5.38905C7.61516 4.89947 7.8567 4.44856 8.12823 4.03631C7.3127 4.21705 6.59711 4.55422 5.98145 5.04781C5.36567 5.54128 4.86848 6.15812 4.48988 6.89833Z" fill="#AEAEAE"/>
</g>
</svg>
