<svg width="19" height="19" viewBox="0 0 19 19" fill="none" xmlns="http://www.w3.org/2000/svg">
<mask id="mask0_46_36" style="mask-type:alpha" maskUnits="userSpaceOnUse" x="0" y="0" width="19" height="19">
<rect width="19" height="19" fill="#AEAEAE"/>
</mask>
<g mask="url(#mask0_46_36)">
<path d="M6 12.8148H13V11.6679H6V12.8148ZM6 9.84428H13V8.69722H6V9.84428ZM6 6.87359H13V5.72672H6V6.87359ZM4.3824 15.7708C3.99609 15.7708 3.66912 15.6369 3.40147 15.3693C3.13382 15.1016 3 14.7747 3 14.3884V4.15315C3 3.76685 3.13382 3.43987 3.40147 3.17222C3.66912 2.90458 3.99609 2.77075 4.3824 2.77075H14.6176C15.0039 2.77075 15.3309 2.90458 15.5985 3.17222C15.8662 3.43987 16 3.76685 16 4.15315V14.3884C16 14.7747 15.8662 15.1016 15.5985 15.3693C15.3309 15.6369 15.0039 15.7708 14.6176 15.7708H4.3824ZM4.3824 14.6237H14.6176C14.6765 14.6237 14.7304 14.5992 14.7793 14.5501C14.8284 14.5011 14.8529 14.4472 14.8529 14.3884V4.15315C14.8529 4.09427 14.8284 4.04035 14.7793 3.99141C14.7304 3.94234 14.6765 3.91781 14.6176 3.91781H4.3824C4.32351 3.91781 4.2696 3.94234 4.22066 3.99141C4.17159 4.04035 4.14706 4.09427 4.14706 4.15315V14.3884C4.14706 14.4472 4.17159 14.5011 4.22066 14.5501C4.2696 14.5992 4.32351 14.6237 4.3824 14.6237Z" fill="#AEAEAE"/>
</g>
</svg>
