<svg width="19" height="19" viewBox="0 0 19 19" fill="none" xmlns="http://www.w3.org/2000/svg">
<mask id="mask0_46_37" style="mask-type:alpha" maskUnits="userSpaceOnUse" x="0" y="0" width="19" height="19">
<rect width="19" height="19" fill="#AEAEAE"/>
</mask>
<g mask="url(#mask0_46_37)">
<path d="M6.48572 12.9178C6.67753 12.9178 6.83819 12.853 6.96768 12.7232C7.09704 12.5935 7.16172 12.4327 7.16172 12.2409C7.16172 12.0491 7.09685 11.8884 6.9671 11.7589C6.83736 11.6296 6.67658 11.5649 6.48476 11.5649C6.29295 11.5649 6.13236 11.6297 6.003 11.7595C5.87351 11.8892 5.80876 12.05 5.80876 12.2418C5.80876 12.4336 5.87364 12.5942 6.00338 12.7236C6.13326 12.8531 6.29403 12.9178 6.48572 12.9178ZM6.48572 9.94713C6.67753 9.94713 6.83819 9.88226 6.96768 9.75252C7.09704 9.62277 7.16172 9.46199 7.16172 9.27018C7.16172 9.07837 7.09685 8.91778 6.9671 8.78841C6.83736 8.65905 6.67658 8.59437 6.48476 8.59437C6.29295 8.59437 6.13236 8.65924 6.003 8.78899C5.87351 8.91873 5.80876 9.07951 5.80876 9.27133C5.80876 9.46314 5.87364 9.62373 6.00338 9.75309C6.13326 9.88245 6.29403 9.94713 6.48572 9.94713ZM6.48572 6.97663C6.67753 6.97663 6.83819 6.91176 6.96768 6.78202C7.09704 6.65227 7.16172 6.49149 7.16172 6.29968C7.16172 6.10787 7.09685 5.94728 6.9671 5.81791C6.83736 5.68842 6.67658 5.62368 6.48476 5.62368C6.29295 5.62368 6.13236 5.68855 6.003 5.8183C5.87351 5.94804 5.80876 6.10882 5.80876 6.30063C5.80876 6.49245 5.87364 6.6531 6.00338 6.78259C6.13326 6.91195 6.29403 6.97663 6.48572 6.97663ZM4.3824 15.7708C3.99609 15.7708 3.66912 15.6369 3.40147 15.3693C3.13382 15.1016 3 14.7747 3 14.3884V4.15315C3 3.76685 3.13382 3.43987 3.40147 3.17222C3.66912 2.90458 3.99609 2.77075 4.3824 2.77075H14.6176C15.0039 2.77075 15.3309 2.90458 15.5985 3.17222C15.8662 3.43987 16 3.76685 16 4.15315V14.3884C16 14.7747 15.8662 15.1016 15.5985 15.3693C15.3309 15.6369 15.0039 15.7708 14.6176 15.7708H4.3824ZM4.3824 14.6237H14.6176C14.6765 14.6237 14.7304 14.5992 14.7793 14.5501C14.8284 14.5011 14.8529 14.4472 14.8529 14.3884V4.15315C14.8529 4.09427 14.8284 4.04035 14.7793 3.99141C14.7304 3.94234 14.6765 3.91781 14.6176 3.91781H4.3824C4.32351 3.91781 4.2696 3.94234 4.22066 3.99141C4.17159 4.04035 4.14706 4.09427 4.14706 4.15315V14.3884C4.14706 14.4472 4.17159 14.5011 4.22066 14.5501C4.2696 14.5992 4.32351 14.6237 4.3824 14.6237Z" fill="#AEAEAE"/>
<path d="M13.1589 12.7232C13.0294 12.8529 12.8688 12.9178 12.677 12.9178C12.4853 12.9178 12.3245 12.8531 12.1946 12.7236C12.0649 12.5942 12 12.4336 12 12.2418C12 12.05 12.0647 11.8892 12.1942 11.7595C12.3236 11.6297 12.4842 11.5648 12.676 11.5648C12.8678 11.5648 13.0286 11.6295 13.1583 11.7589C13.2881 11.8884 13.353 12.049 13.353 12.2408C13.353 12.4327 13.2883 12.5934 13.1589 12.7232Z" fill="#AEAEAE"/>
<path d="M13.1589 9.7525C13.0294 9.88224 12.8688 9.94711 12.677 9.94711C12.4853 9.94711 12.3245 9.88243 12.1946 9.75307C12.0649 9.62371 12 9.46312 12 9.27131C12 9.07949 12.0647 8.91871 12.1942 8.78897C12.3236 8.65922 12.4842 8.59435 12.676 8.59435C12.8678 8.59435 13.0286 8.65903 13.1583 8.78839C13.2881 8.91776 13.353 9.07834 13.353 9.27016C13.353 9.46197 13.2883 9.62275 13.1589 9.7525Z" fill="#AEAEAE"/>
<path d="M13.1589 6.782C13.0294 6.91174 12.8688 6.97661 12.677 6.97661C12.4853 6.97661 12.3245 6.91193 12.1946 6.78257C12.0649 6.65308 12 6.49243 12 6.30061C12 6.1088 12.0647 5.94802 12.1942 5.81827C12.3236 5.68853 12.4842 5.62366 12.676 5.62366C12.8678 5.62366 13.0286 5.6884 13.1583 5.81789C13.2881 5.94726 13.353 6.10784 13.353 6.29966C13.353 6.49147 13.2883 6.65225 13.1589 6.782Z" fill="#AEAEAE"/>
<path d="M10.1589 12.7232C10.0294 12.8529 9.86877 12.9178 9.67696 12.9178C9.48527 12.9178 9.32449 12.8531 9.19462 12.7236C9.06487 12.5942 9 12.4336 9 12.2418C9 12.05 9.06474 11.8892 9.19423 11.7595C9.3236 11.6297 9.48419 11.5648 9.676 11.5648C9.86781 11.5648 10.0286 11.6295 10.1583 11.7589C10.2881 11.8884 10.353 12.049 10.353 12.2408C10.353 12.4327 10.2883 12.5934 10.1589 12.7232Z" fill="#AEAEAE"/>
<path d="M10.1589 9.7525C10.0294 9.88224 9.86877 9.94711 9.67696 9.94711C9.48527 9.94711 9.32449 9.88243 9.19462 9.75307C9.06487 9.62371 9 9.46312 9 9.27131C9 9.07949 9.06474 8.91871 9.19423 8.78897C9.3236 8.65922 9.48419 8.59435 9.676 8.59435C9.86781 8.59435 10.0286 8.65903 10.1583 8.78839C10.2881 8.91776 10.353 9.07834 10.353 9.27016C10.353 9.46197 10.2883 9.62275 10.1589 9.7525Z" fill="#AEAEAE"/>
<path d="M10.1589 6.782C10.0294 6.91174 9.86877 6.97661 9.67696 6.97661C9.48527 6.97661 9.32449 6.91193 9.19462 6.78257C9.06487 6.65308 9 6.49243 9 6.30061C9 6.1088 9.06474 5.94802 9.19423 5.81827C9.3236 5.68853 9.48419 5.62366 9.676 5.62366C9.86781 5.62366 10.0286 5.6884 10.1583 5.81789C10.2881 5.94726 10.353 6.10784 10.353 6.29966C10.353 6.49147 10.2883 6.65225 10.1589 6.782Z" fill="#AEAEAE"/>
</g>
</svg>
