<svg width="19" height="19" viewBox="0 0 19 19" fill="none" xmlns="http://www.w3.org/2000/svg">
<mask id="mask0_317_53" style="mask-type:alpha" maskUnits="userSpaceOnUse" x="0" y="0" width="19" height="19">
<rect x="19" width="19" height="19" transform="rotate(90 19 0)" fill="#D9D9D9"/>
</mask>
<g mask="url(#mask0_317_53)">
<path d="M3.74517 9.5C3.74517 9.17344 3.86148 8.89391 4.0941 8.66143C4.32659 8.42881 4.60611 8.3125 4.93268 8.3125C5.25924 8.3125 5.53883 8.42881 5.77145 8.66143C6.00393 8.89391 6.12018 9.17344 6.12018 9.5C6.12018 9.82656 6.00393 10.1061 5.77145 10.3386C5.53883 10.5712 5.25924 10.6875 4.93267 10.6875C4.60611 10.6875 4.32659 10.5712 4.0941 10.3386C3.86148 10.1061 3.74517 9.82656 3.74517 9.5ZM8.3125 9.5C8.3125 9.17344 8.42881 8.89391 8.66143 8.66143C8.89391 8.42881 9.17344 8.3125 9.5 8.3125C9.82656 8.3125 10.1061 8.42881 10.3386 8.66143C10.5712 8.89391 10.6875 9.17344 10.6875 9.5C10.6875 9.82656 10.5712 10.1061 10.3386 10.3386C10.1061 10.5712 9.82656 10.6875 9.5 10.6875C9.17344 10.6875 8.89391 10.5712 8.66143 10.3386C8.42881 10.1061 8.3125 9.82656 8.3125 9.5ZM12.8798 9.5C12.8798 9.17344 12.9961 8.89391 13.2286 8.66143C13.4612 8.42881 13.7408 8.3125 14.0673 8.3125C14.3939 8.3125 14.6734 8.42881 14.9059 8.66143C15.1385 8.89391 15.2548 9.17344 15.2548 9.5C15.2548 9.82656 15.1385 10.1061 14.9059 10.3386C14.6734 10.5712 14.3939 10.6875 14.0673 10.6875C13.7408 10.6875 13.4612 10.5712 13.2286 10.3386C12.9961 10.1061 12.8798 9.82656 12.8798 9.5Z" fill="#AEAEAE"/>
</g>
</svg>
