<svg width="19" height="19" viewBox="0 0 19 19" fill="none" xmlns="http://www.w3.org/2000/svg">
<mask id="mask0_491_111" style="mask-type:alpha" maskUnits="userSpaceOnUse" x="0" y="0" width="18" height="18">
<rect width="18" height="18" fill="#AEAEAE"/>
</mask>
<g mask="url(#mask0_491_111)">
<path d="M9.61056 16.1106C8.76444 16.0079 7.92406 15.7828 7.08944 15.435C6.25481 15.0873 5.50481 14.5848 4.83944 13.9277C4.17406 13.2704 3.62863 12.4389 3.20312 11.4332C2.77775 10.4274 2.54819 9.21739 2.51444 7.80301L2.5 7.12501L3.16356 7.13945C3.74331 7.15382 4.3815 7.26032 5.07812 7.45895C5.77475 7.65745 6.39519 7.92882 6.93944 8.27307C7.04619 7.26545 7.33275 6.21882 7.79912 5.1332C8.2655 4.0477 8.82606 3.12032 9.48081 2.35107C10.1356 3.12032 10.6961 4.05014 11.1625 5.14051C11.6289 6.23089 11.9154 7.27989 12.0222 8.28751C12.5519 7.95776 13.1603 7.68757 13.8473 7.47695C14.5343 7.26632 15.1798 7.15382 15.7836 7.13945L16.4616 7.12501L16.4472 7.81726C16.4279 9.09714 16.238 10.2147 15.8774 11.1699C15.5169 12.1252 15.0304 12.9363 14.4179 13.6031C13.8054 14.2699 13.0895 14.8071 12.2703 15.2149C11.451 15.6225 10.5644 15.9211 9.61056 16.1106ZM9.5875 14.9625C9.45 12.8875 8.83438 11.3188 7.74063 10.2563C6.64688 9.19376 5.2875 8.53751 3.6625 8.28751C3.8 10.425 4.43438 12.0188 5.56563 13.0688C6.69688 14.1188 8.0375 14.75 9.5875 14.9625ZM9.48081 10.6905C9.65869 10.3963 9.88081 10.0902 10.1472 9.77232C10.4136 9.45457 10.6789 9.18464 10.9433 8.96251C10.9279 8.22114 10.7921 7.44732 10.5359 6.64107C10.2796 5.83482 9.92794 5.05576 9.48081 4.30389C9.03369 5.05576 8.682 5.83482 8.42575 6.64107C8.1695 7.44732 8.03369 8.22114 8.01831 8.96251C8.28269 9.18464 8.54881 9.45457 8.81669 9.77232C9.08444 10.0902 9.30581 10.3963 9.48081 10.6905ZM10.7125 14.6683C11.2375 14.4942 11.7596 14.2538 12.2789 13.9472C12.7981 13.6404 13.2722 13.2366 13.7011 12.7356C14.1298 12.2346 14.4889 11.6201 14.7784 10.8923C15.0678 10.1644 15.2414 9.29614 15.2991 8.28751C14.1049 8.46251 13.0496 8.87114 12.1332 9.51339C11.2168 10.1558 10.5356 10.9577 10.0894 11.9192C10.2394 12.3192 10.3652 12.7399 10.4667 13.1813C10.5681 13.6226 10.65 14.1183 10.7125 14.6683Z" fill="#AEAEAE"/>
</g>
</svg>
