<svg width="19" height="19" viewBox="0 0 19 19" fill="none" xmlns="http://www.w3.org/2000/svg">
<path d="M14.7363 10.5818C14.7363 10.9621 14.6979 11.3347 14.621 11.6998C14.5443 12.0647 14.4318 12.4219 14.2836 12.7716L13.477 11.9466C13.5551 11.7406 13.6115 11.5257 13.6461 11.3018C13.6807 11.0781 13.698 10.8381 13.698 10.5818C13.698 10.0122 13.5971 9.47056 13.3952 8.95684C13.1933 8.44324 12.8904 7.98648 12.4867 7.58656L9.54481 4.53261L7.96868 6.15193L7.23927 5.38553L9.54481 3L13.2161 6.78399C13.6838 7.25105 14.054 7.8213 14.3269 8.49475C14.5998 9.16831 14.7363 9.864 14.7363 10.5818ZM14.9706 17L12.8115 14.7319C12.374 15.1161 11.8742 15.4149 11.312 15.6283C10.7497 15.8418 10.1606 15.9486 9.54481 15.9486C8.10366 15.9486 6.87812 15.4253 5.8682 14.3789C4.85829 13.3325 4.35333 12.0668 4.35333 10.5818C4.35333 9.93574 4.46229 9.3221 4.68022 8.74088C4.89803 8.15966 5.19821 7.6248 5.58077 7.13628L2.70001 4.11033L3.42959 3.34411L15.7 16.2338L14.9706 17ZM9.54481 14.8579C10.0488 14.8579 10.5161 14.7705 10.9465 14.5957C11.3769 14.4209 11.7484 14.2034 12.0608 13.9433L6.31017 7.92486C6.03237 8.29873 5.80983 8.70871 5.64255 9.1548C5.47527 9.6009 5.39162 10.0766 5.39162 10.5818C5.39162 11.7694 5.79541 12.779 6.60297 13.6105C7.41054 14.4421 8.39115 14.8579 9.54481 14.8579Z" fill="#AEAEAE"/>
</svg>
