<svg width="19" height="19" viewBox="0 0 19 19" fill="none" xmlns="http://www.w3.org/2000/svg">
<path d="M15.6463 13.6869L14.5668 12.6074V4.80472C14.5668 4.7493 14.5437 4.69857 14.4975 4.65251C14.4515 4.60633 14.4007 4.58324 14.3453 4.58324H6.54262L5.46314 3.50376H14.3453C14.7089 3.50376 15.0166 3.6297 15.2684 3.88158C15.5203 4.13346 15.6463 4.44117 15.6463 4.80472V13.6869ZM15.3917 17L14.1294 15.7379H4.71308C4.34953 15.7379 4.04182 15.612 3.78994 15.3601C3.53806 15.1082 3.41212 14.8005 3.41212 14.4369V5.02061L2.15002 3.75834L2.90836 3L16.15 16.2417L15.3917 17ZM5.751 13.0392L7.53629 10.6726L8.9756 12.5133L9.81849 11.438L4.4916 6.11107V14.4369C4.4916 14.4924 4.51469 14.5431 4.56087 14.5892C4.60693 14.6353 4.65766 14.6584 4.71308 14.6584H13.039L11.4197 13.0392H5.751Z" fill="#AEAEAE"/>
</svg>
