<svg width="19" height="19" viewBox="0 0 19 19" fill="none" xmlns="http://www.w3.org/2000/svg">
<mask id="mask0_491_158" style="mask-type:alpha" maskUnits="userSpaceOnUse" x="0" y="0" width="19" height="19">
<rect x="0.25" width="18.5" height="18.5" fill="#AEAEAE"/>
</mask>
<g mask="url(#mask0_491_158)">
<path d="M9.5 16.9159C9.19064 16.9159 8.91712 16.8343 8.67945 16.6713C8.44177 16.5081 8.27553 16.2942 8.18072 16.0294H7.95833C7.64306 16.0294 7.37154 15.9155 7.14376 15.6877C6.91597 15.4599 6.80208 15.1884 6.80208 14.8731V12.3442C6.02431 11.8729 5.41233 11.2409 4.96615 10.4484C4.51997 9.65569 4.29688 8.80726 4.29688 7.90308C4.29688 6.45237 4.80139 5.2225 5.81041 4.21348C6.81943 3.20446 8.04929 2.69995 9.5 2.69995C10.9507 2.69995 12.1806 3.20446 13.1896 4.21348C14.1986 5.2225 14.7031 6.45237 14.7031 7.90308C14.7031 8.82307 14.48 9.67542 14.0338 10.4601C13.5877 11.2448 12.9757 11.8729 12.1979 12.3442V14.8731C12.1979 15.1884 12.084 15.4599 11.8562 15.6877C11.6285 15.9155 11.3569 16.0294 11.0417 16.0294H10.8193C10.7245 16.2942 10.5582 16.5081 10.3206 16.6713C10.0829 16.8343 9.80936 16.9159 9.5 16.9159ZM7.95833 14.8731H11.0417V14.1497H7.95833V14.8731ZM7.95833 13.4679H11.0417V12.7208H7.95833V13.4679ZM7.80417 11.5645H9.04039V9.32025L7.38907 7.66894L8.03542 7.02259L9.5 8.48718L10.9646 7.02259L11.6109 7.66894L9.95961 9.32025V11.5645H11.1958C11.8896 11.2305 12.4549 10.7391 12.8917 10.0903C13.3285 9.44153 13.5469 8.71245 13.5469 7.90308C13.5469 6.77252 13.155 5.8154 12.3714 5.03172C11.5877 4.24804 10.6306 3.8562 9.5 3.8562C8.36944 3.8562 7.41233 4.24804 6.62865 5.03172C5.84497 5.8154 5.45312 6.77252 5.45312 7.90308C5.45312 8.71245 5.67153 9.44153 6.10833 10.0903C6.54514 10.7391 7.11042 11.2305 7.80417 11.5645Z" fill="#AEAEAE"/>
</g>
</svg>
