<svg width="19" height="19" viewBox="0 0 19 19" fill="none" xmlns="http://www.w3.org/2000/svg">
<mask id="mask0_415_52" style="mask-type:alpha" maskUnits="userSpaceOnUse" x="1" y="1" width="17" height="16">
<rect x="1.5" y="1" width="16" height="16" fill="#AEAEAE"/>
</mask>
<g mask="url(#mask0_415_52)">
<path d="M5.03848 14.6667C4.70604 14.6667 4.42204 14.549 4.18648 14.3135C3.95104 14.078 3.83331 13.794 3.83331 13.4615V4.53853C3.83331 4.20609 3.95104 3.92209 4.18648 3.68653C4.42204 3.45109 4.70604 3.33337 5.03848 3.33337H7.97565C8.06798 3.00859 8.25665 2.73937 8.54165 2.5257C8.82665 2.31203 9.14609 2.2052 9.49998 2.2052C9.86753 2.2052 10.1921 2.31203 10.4736 2.5257C10.7553 2.73937 10.9423 3.00859 11.0346 3.33337H13.9615C14.2939 3.33337 14.5779 3.45109 14.8135 3.68653C15.0489 3.92209 15.1666 4.20609 15.1666 4.53853V13.4615C15.1666 13.794 15.0489 14.078 14.8135 14.3135C14.5779 14.549 14.2939 14.6667 13.9615 14.6667H5.03848ZM5.03848 13.6667H13.9615C14.0128 13.6667 14.0598 13.6453 14.1025 13.6025C14.1453 13.5599 14.1666 13.5129 14.1666 13.4615V4.53853C14.1666 4.4872 14.1453 4.4402 14.1025 4.39753C14.0598 4.35476 14.0128 4.33337 13.9615 4.33337H12.5V6.07687H6.49998V4.33337H5.03848C4.98715 4.33337 4.94015 4.35476 4.89748 4.39753C4.8547 4.4402 4.83331 4.4872 4.83331 4.53853V13.4615C4.83331 13.5129 4.8547 13.5599 4.89748 13.6025C4.94015 13.6453 4.98715 13.6667 5.03848 13.6667ZM9.49998 4.41037C9.67176 4.41037 9.81515 4.35287 9.93015 4.23787C10.045 4.12287 10.1025 3.97948 10.1025 3.8077C10.1025 3.63592 10.045 3.49253 9.93015 3.37753C9.81515 3.26265 9.67176 3.2052 9.49998 3.2052C9.3282 3.2052 9.18481 3.26265 9.06981 3.37753C8.95492 3.49253 8.89748 3.63592 8.89748 3.8077C8.89748 3.97948 8.95492 4.12287 9.06981 4.23787C9.18481 4.35287 9.3282 4.41037 9.49998 4.41037Z" fill="#AEAEAE"/>
</g>
</svg>
