<svg width="19" height="19" viewBox="0 0 19 19" fill="none" xmlns="http://www.w3.org/2000/svg">
<mask id="mask0_491_106" style="mask-type:alpha" maskUnits="userSpaceOnUse" x="2" y="2" width="15" height="16">
<rect x="2" y="2.5" width="15" height="15" fill="#AEAEAE"/>
</mask>
<g mask="url(#mask0_491_106)">
<path d="M9.49998 13.75C10.8958 13.75 12.0781 13.263 13.0469 12.2891C14.0156 11.3151 14.5 10.1354 14.5 8.75C14.5 8.38698 14.4649 8.04 14.3948 7.70906C14.3247 7.37813 14.2203 7.06203 14.0817 6.76078C13.8165 6.92984 13.5347 7.05927 13.2362 7.14906C12.9377 7.23875 12.6298 7.28359 12.3125 7.28359C11.7339 7.28359 11.1963 7.14396 10.6995 6.86469C10.2027 6.58552 9.8029 6.1975 9.49998 5.70063C9.20113 6.1975 8.80227 6.58552 8.30342 6.86469C7.80467 7.14396 7.26602 7.28359 6.68748 7.28359C6.37019 7.28359 6.06331 7.23875 5.76685 7.14906C5.4704 7.05927 5.18951 6.93188 4.9242 6.76688C4.78566 7.07208 4.68029 7.39016 4.6081 7.72109C4.53602 8.05203 4.49998 8.395 4.49998 8.75C4.49998 10.1354 4.98696 11.3151 5.96092 12.2891C6.93487 13.263 8.11456 13.75 9.49998 13.75ZM7.62498 10.1562C7.84373 10.1562 8.02863 10.0807 8.17967 9.92969C8.33071 9.77865 8.40623 9.59375 8.40623 9.375C8.40623 9.15625 8.33071 8.97135 8.17967 8.82031C8.02863 8.66927 7.84373 8.59375 7.62498 8.59375C7.40623 8.59375 7.22133 8.66927 7.07029 8.82031C6.91925 8.97135 6.84373 9.15625 6.84373 9.375C6.84373 9.59375 6.91925 9.77865 7.07029 9.92969C7.22133 10.0807 7.40623 10.1562 7.62498 10.1562ZM11.375 10.1562C11.5937 10.1562 11.7786 10.0807 11.9297 9.92969C12.0807 9.77865 12.1562 9.59375 12.1562 9.375C12.1562 9.15625 12.0807 8.97135 11.9297 8.82031C11.7786 8.66927 11.5937 8.59375 11.375 8.59375C11.1562 8.59375 10.9713 8.66927 10.8203 8.82031C10.6692 8.97135 10.5937 9.15625 10.5937 9.375C10.5937 9.59375 10.6692 9.77865 10.8203 9.92969C10.9713 10.0807 11.1562 10.1562 11.375 10.1562ZM6.68748 6.34609C7.33571 6.34609 7.88842 6.11755 8.3456 5.66047C8.80269 5.20328 9.03123 4.65057 9.03123 4.00234V3.76922C8.27883 3.83651 7.58571 4.06349 6.95185 4.45016C6.3181 4.83672 5.79529 5.3313 5.38342 5.93391C5.57894 6.06287 5.78586 6.1638 6.0042 6.23672C6.22253 6.30964 6.45029 6.34609 6.68748 6.34609ZM12.3125 6.34609C12.5497 6.34609 12.7784 6.31026 12.9987 6.23859C13.2191 6.16693 13.4271 6.06339 13.6226 5.92797C13.2147 5.32932 12.6954 4.84172 12.0648 4.46516C11.4342 4.08859 10.7355 3.85865 9.96873 3.77531V4.00234C9.96873 4.65057 10.1973 5.20328 10.6544 5.66047C11.1115 6.11755 11.6643 6.34609 12.3125 6.34609ZM3.7056 15.9375C3.37706 15.9375 3.09982 15.8151 2.87389 15.5703C2.64784 15.3255 2.54847 15.0389 2.57576 14.7103L3.12014 8.74875C3.19951 7.91781 3.4205 7.14021 3.7831 6.41594C4.1456 5.69156 4.61154 5.06276 5.18092 4.52953C5.75019 3.9962 6.40404 3.57672 7.14248 3.27109C7.88081 2.96536 8.66665 2.8125 9.49998 2.8125C10.3333 2.8125 11.1191 2.96536 11.8575 3.27109C12.5959 3.57672 13.2498 3.9962 13.819 4.52953C14.3884 5.06276 14.8544 5.69156 15.2169 6.41594C15.5795 7.14021 15.8004 7.91781 15.8798 8.74875L16.4242 14.7103C16.4515 15.0389 16.3521 15.3255 16.1261 15.5703C15.9001 15.8151 15.6229 15.9375 15.2944 15.9375H3.7056ZM9.49998 14.6875C8.18592 14.6875 7.01706 14.3025 5.99342 13.5325C4.96977 12.7624 4.26764 11.7856 3.88701 10.6022L3.51326 14.7897C3.50524 14.8457 3.52123 14.8948 3.56123 14.9369C3.60133 14.979 3.64946 15 3.7056 15H15.2944C15.3505 15 15.3986 14.979 15.4387 14.9369C15.4787 14.8948 15.4947 14.8457 15.4867 14.7897L15.1129 10.6081C14.7323 11.7917 14.0318 12.7674 13.0114 13.5355C11.991 14.3035 10.8205 14.6875 9.49998 14.6875Z" fill="#AEAEAE"/>
</g>
</svg>
