<svg width="19" height="19" viewBox="0 0 19 19" fill="none" xmlns="http://www.w3.org/2000/svg">
<mask id="mask0_398_29" style="mask-type:alpha" maskUnits="userSpaceOnUse" x="1" y="1" width="17" height="17">
<rect x="1" y="1" width="17" height="17" fill="#AEAEAE"/>
</mask>
<g mask="url(#mask0_398_29)">
<path d="M12.3332 6.88464V4.75964H6.66658V6.88464H5.60408V3.69714H13.3957V6.88464H12.3332ZM13.6137 9.71798C13.8144 9.71798 13.9827 9.6501 14.1184 9.51433C14.2542 9.37857 14.3221 9.21034 14.3221 9.00964C14.3221 8.80895 14.2542 8.64072 14.1184 8.50496C13.9827 8.36919 13.8144 8.30131 13.6137 8.30131C13.413 8.30131 13.2448 8.36919 13.109 8.50496C12.9733 8.64072 12.9054 8.80895 12.9054 9.00964C12.9054 9.21034 12.9733 9.37857 13.109 9.51433C13.2448 9.6501 13.413 9.71798 13.6137 9.71798ZM12.3332 14.4583V11.4343H6.66658V14.4583H12.3332ZM13.3957 15.5208H5.60408V12.6875H2.9751V8.65548C2.9751 8.15374 3.14651 7.73317 3.48935 7.39376C3.83218 7.05435 4.25104 6.88464 4.74593 6.88464H14.2539C14.7556 6.88464 15.1762 7.05435 15.5156 7.39376C15.855 7.73317 16.0247 8.15374 16.0247 8.65548V12.6875H13.3957V15.5208ZM14.9622 11.625V8.65548C14.9622 8.45478 14.8943 8.28655 14.7586 8.15079C14.6228 8.01503 14.4546 7.94714 14.2539 7.94714H4.74593C4.54524 7.94714 4.37701 8.01503 4.24124 8.15079C4.10548 8.28655 4.0376 8.45478 4.0376 8.65548V11.625H5.60408V10.3718H13.3957V11.625H14.9622Z" fill="#AEAEAE"/>
</g>
</svg>
