<svg width="19" height="19" viewBox="0 0 19 19" fill="none" xmlns="http://www.w3.org/2000/svg">
<mask id="mask0_607_29" style="mask-type:alpha" maskUnits="userSpaceOnUse" x="0" y="0" width="19" height="19">
<rect width="19" height="19" fill="#AEAEAE"/>
</mask>
<g mask="url(#mask0_607_29)">
<path d="M8.9 13.0391H10.1V8.67667H8.9V13.0391ZM9.5 7.33764C9.68307 7.33764 9.83653 7.27968 9.9604 7.16376C10.0843 7.04784 10.1462 6.90421 10.1462 6.73289C10.1462 6.56157 10.0843 6.41794 9.9604 6.30202C9.83653 6.18622 9.68307 6.12833 9.5 6.12833C9.31693 6.12833 9.16347 6.18622 9.0396 6.30202C8.91573 6.41794 8.8538 6.56157 8.8538 6.73289C8.8538 6.90421 8.91573 7.04784 9.0396 7.16376C9.16347 7.27968 9.31693 7.33764 9.5 7.33764ZM9.5 16.6818C7.76973 16.2402 6.3372 15.2871 5.2024 13.8224C4.06747 12.3577 3.5 10.7202 3.5 8.90989V4.60213L9.5 2.5L15.5 4.60213V8.90989C15.5 10.7202 14.9325 12.3577 13.7976 13.8224C12.6628 15.2871 11.2303 16.2402 9.5 16.6818ZM9.5 15.4983C10.8867 15.0866 12.0333 14.263 12.94 13.0277C13.8467 11.7923 14.3 10.4197 14.3 8.90989V5.37234L9.5 3.69491L4.7 5.37234V8.90989C4.7 10.4197 5.15333 11.7923 6.06 13.0277C6.96667 14.263 8.11333 15.0866 9.5 15.4983Z" fill="#AEAEAE"/>
</g>
</svg>
