<svg width="19" height="19" viewBox="0 0 19 19" fill="none" xmlns="http://www.w3.org/2000/svg">
<path d="M9.625 15.25C8.05462 15.25 6.72456 14.7052 5.63481 13.6156C4.54494 12.5259 4 11.1961 4 9.62613C4 8.05613 4.54494 6.72594 5.63481 5.63556C6.72456 4.54519 8.05462 4 9.625 4C10.5019 4 11.3317 4.19494 12.1144 4.58481C12.8971 4.97481 13.548 5.52506 14.0673 6.23556V4H15.1923V8.58644H10.6058V7.46162H13.5683C13.1731 6.7375 12.6249 6.16706 11.9239 5.75031C11.2231 5.33344 10.4568 5.125 9.625 5.125C8.375 5.125 7.3125 5.5625 6.4375 6.4375C5.5625 7.3125 5.125 8.375 5.125 9.625C5.125 10.875 5.5625 11.9375 6.4375 12.8125C7.3125 13.6875 8.375 14.125 9.625 14.125C10.5875 14.125 11.4563 13.85 12.2313 13.3C13.0063 12.75 13.55 12.025 13.8625 11.125H15.0481C14.7077 12.349 14.0373 13.3425 13.0368 14.1055C12.0363 14.8685 10.899 15.25 9.625 15.25Z" fill="#AEAEAE"/>
</svg>
