<svg width="19" height="19" viewBox="0 0 19 19" fill="none" xmlns="http://www.w3.org/2000/svg">
<path d="M3.5 14.8056V13.6334H4.9462V7.80156C4.9462 6.75049 5.27827 5.82114 5.9424 5.01352C6.6064 4.2059 7.45893 3.68935 8.5 3.46387V2.97696C8.5 2.70562 8.59713 2.47493 8.7914 2.28488C8.98567 2.09496 9.22153 2 9.499 2C9.7766 2 10.0128 2.09496 10.2076 2.28488C10.4025 2.47493 10.5 2.70562 10.5 2.97696V3.46387C11.5411 3.68935 12.3936 4.2059 13.0576 5.01352C13.7217 5.82114 14.0538 6.75049 14.0538 7.80156V13.6334H15.5V14.8056H3.5ZM9.4986 17C9.1006 17 8.76033 16.8617 8.4778 16.585C8.19513 16.3083 8.0538 15.9757 8.0538 15.5871H10.9462C10.9462 15.977 10.8045 16.3099 10.521 16.586C10.2375 16.862 9.89673 17 9.4986 17ZM6.1462 13.6334H12.8538V7.80156C12.8538 6.89677 12.5264 6.12452 11.8716 5.4848C11.2167 4.84496 10.4261 4.52504 9.5 4.52504C8.57387 4.52504 7.78333 4.84496 7.1284 5.4848C6.4736 6.12452 6.1462 6.89677 6.1462 7.80156V13.6334Z" fill="#AEAEAE"/>
</svg>
