<svg width="19" height="19" viewBox="0 0 19 19" fill="none" xmlns="http://www.w3.org/2000/svg">
<mask id="mask0_123_42" style="mask-type:alpha" maskUnits="userSpaceOnUse" x="1" y="1" width="17" height="17">
<rect width="16.6405" height="16.6405" transform="matrix(-1 0 0 1 17.9443 1)" fill="#D9D9D9"/>
</mask>
<g mask="url(#mask0_123_42)">
<path d="M13.0449 14V12.8214H7.85185C7.09666 12.8214 6.44682 12.5507 5.90232 12.0092C5.35769 11.4678 5.08538 10.7993 5.08538 10.0035C5.08538 9.20767 5.35769 8.54027 5.90232 8.00127C6.44682 7.4624 7.09666 7.19296 7.85185 7.19296H12.9322L10.9188 9.37941L11.6813 10.2074L15 6.60368L11.6813 3L10.9188 3.82795L12.9322 6.01439H7.85185C6.79336 6.01439 5.88676 6.39795 5.13206 7.16507C4.37735 7.93219 4 8.87832 4 10.0035C4 11.1286 4.37735 12.076 5.13206 12.8456C5.88676 13.6152 6.79336 14 7.85185 14H13.0449Z" fill="#AEAEAE"/>
</g>
</svg>
