<svg width="19" height="19" viewBox="0 0 19 19" fill="none" xmlns="http://www.w3.org/2000/svg">
<mask id="mask0_393_21" style="mask-type:alpha" maskUnits="userSpaceOnUse" x="1" y="1" width="17" height="17">
<rect x="1" y="1" width="17" height="17" fill="#AEAEAE"/>
</mask>
<g mask="url(#mask0_393_21)">
<path d="M4.75962 15.5209C4.40179 15.5209 4.09892 15.397 3.851 15.149C3.60308 14.9011 3.47913 14.5983 3.47913 14.2404V10.2084H4.54163V14.2404C4.54163 14.295 4.56435 14.3449 4.6098 14.3902C4.65514 14.4357 4.70507 14.4584 4.75962 14.4584H8.79163V15.5209H4.75962ZM10.2083 15.5209V14.4584H14.2403C14.2948 14.4584 14.3448 14.4357 14.3901 14.3902C14.4356 14.3449 14.4583 14.295 14.4583 14.2404V10.2084H15.5208V14.2404C15.5208 14.5983 15.3968 14.9011 15.1489 15.149C14.901 15.397 14.5981 15.5209 14.2403 15.5209H10.2083ZM5.78121 12.8647L7.53841 10.5353L8.95507 12.347L10.9439 9.75898L13.2731 12.8647H5.78121ZM3.47913 8.79175V4.75974C3.47913 4.40191 3.60308 4.09904 3.851 3.85112C4.09892 3.60321 4.40179 3.47925 4.75962 3.47925H8.79163V4.54175H4.75962C4.70507 4.54175 4.65514 4.56447 4.6098 4.60992C4.56435 4.65526 4.54163 4.7052 4.54163 4.75974V8.79175H3.47913ZM14.4583 8.79175V4.75974C14.4583 4.7052 14.4356 4.65526 14.3901 4.60992C14.3448 4.56447 14.2948 4.54175 14.2403 4.54175H10.2083V3.47925H14.2403C14.5981 3.47925 14.901 3.60321 15.1489 3.85112C15.3968 4.09904 15.5208 4.40191 15.5208 4.75974V8.79175H14.4583ZM11.9109 8.01524C11.645 8.01524 11.4241 7.9274 11.2483 7.75174C11.0726 7.57595 10.9848 7.35507 10.9848 7.08909C10.9848 6.82299 11.0726 6.60205 11.2483 6.42627C11.4241 6.2506 11.645 6.16277 11.9109 6.16277C12.177 6.16277 12.398 6.2506 12.5738 6.42627C12.7494 6.60205 12.8373 6.82299 12.8373 7.08909C12.8373 7.35507 12.7494 7.57595 12.5738 7.75174C12.398 7.9274 12.177 8.01524 11.9109 8.01524Z" fill="#AEAEAE"/>
</g>
</svg>
