<svg width="19" height="19" viewBox="0 0 19 19" fill="none" xmlns="http://www.w3.org/2000/svg">
<path fill-rule="evenodd" clip-rule="evenodd" d="M3.51859 7.35779C3.17282 8.16028 3 8.99902 3 9.875C3 11.507 3.52908 12.9279 4.5882 14.1423C5.62244 15.328 6.92081 16.0342 8.48749 16.2622V15.1482C7.22421 14.9141 6.18204 14.3083 5.36499 13.3324C4.5304 12.3356 4.11249 11.1816 4.11249 9.875C4.11249 9.13513 4.25156 8.43457 4.53006 7.77405C4.79587 7.14368 5.18417 6.58655 5.694 6.10315L4.90207 5.31116C4.31256 5.90308 3.8515 6.58508 3.51859 7.35779ZM14.3329 14.1201C15.3947 12.9113 15.925 11.4977 15.925 9.875C15.925 8.07019 15.2991 6.54431 14.0461 5.29138C12.7932 4.03845 11.2673 3.41248 9.46249 3.41248H8.91153L10.1928 2.13123L9.41196 1.35059L6.79385 3.96875L9.41196 6.58691L10.1928 5.80627L8.91153 4.52502H9.46249C10.9471 4.52502 12.2122 5.04578 13.252 6.08557C14.2917 7.12537 14.8125 8.3905 14.8125 9.875C14.8125 11.1765 14.3907 12.3228 13.5485 13.3096C12.7246 14.2748 11.6865 14.8929 10.4375 15.1625V16.2769C11.9987 16.0189 13.2958 15.3005 14.3329 14.1201ZM10.3532 16.3914L10.4315 16.3792C10.4002 16.3842 10.3689 16.389 10.3375 16.3938L10.3532 16.3914ZM10.4315 16.3792L10.4375 16.3782C10.4702 16.3728 10.5027 16.3673 10.5352 16.3616C10.5007 16.3677 10.4662 16.3735 10.4315 16.3792Z" fill="#AEAEAE"/>
</svg>
