<svg width="19" height="19" viewBox="0 0 19 19" fill="none" xmlns="http://www.w3.org/2000/svg">
<mask id="mask0_658_18" style="mask-type:alpha" maskUnits="userSpaceOnUse" x="0" y="0" width="19" height="19">
<rect width="19" height="19" fill="#AEAEAE"/>
</mask>
<g mask="url(#mask0_658_18)">
<path d="M15.8333 7.125V4.99364C15.8333 4.93268 15.8079 4.87686 15.7571 4.8262C15.7065 4.7754 15.6506 4.75 15.5897 4.75H13.4583V3.5625H15.5897C15.9896 3.5625 16.3281 3.70104 16.6052 3.97813C16.8823 4.25521 17.0208 4.59371 17.0208 4.99364V7.125H15.8333ZM1.97916 7.125V4.99364C1.97916 4.59371 2.1177 4.25521 2.39478 3.97813C2.67186 3.70104 3.01037 3.5625 3.41029 3.5625H5.54166V4.75H3.41029C3.34933 4.75 3.29352 4.7754 3.24285 4.8262C3.19206 4.87686 3.16666 4.93268 3.16666 4.99364V7.125H1.97916ZM13.4583 15.4375V14.25H15.5897C15.6506 14.25 15.7065 14.2246 15.7571 14.1738C15.8079 14.1231 15.8333 14.0673 15.8333 14.0064V11.875H17.0208V14.0064C17.0208 14.4063 16.8823 14.7448 16.6052 15.0219C16.3281 15.299 15.9896 15.4375 15.5897 15.4375H13.4583ZM3.41029 15.4375C3.01037 15.4375 2.67186 15.299 2.39478 15.0219C2.1177 14.7448 1.97916 14.4063 1.97916 14.0064V11.875H3.16666V14.0064C3.16666 14.0673 3.19206 14.1231 3.24285 14.1738C3.29352 14.2246 3.34933 14.25 3.41029 14.25H5.54166V15.4375H3.41029ZM5.08486 12.3318V6.66821H13.9151V12.3318H5.08486ZM6.27236 11.1443H12.7276V7.85571H6.27236V11.1443Z" fill="#AEAEAE"/>
</g>
</svg>
