<svg width="19" height="20" viewBox="0 0 19 20" fill="none" xmlns="http://www.w3.org/2000/svg">
<path d="M4.93334 11.2202C4.58869 11.2202 4.29697 11.0945 4.05819 10.8432C3.8194 10.5918 3.70001 10.2847 3.70001 9.92195V6.05507C3.70001 5.69229 3.8194 5.38522 4.05819 5.13387C4.29697 4.88251 4.58869 4.75684 4.93334 4.75684H14.0648C14.4095 4.75684 14.7012 4.88251 14.94 5.13387C15.1788 5.38522 15.2981 5.69229 15.2981 6.05507V9.92195C15.2981 10.2847 15.1788 10.5918 14.94 10.8432C14.7012 11.0945 14.4095 11.2202 14.0648 11.2202H4.93334ZM4.93334 10.143H14.0648C14.1174 10.143 14.1654 10.1199 14.2091 10.0738C14.2529 10.0279 14.2748 9.97725 14.2748 9.92195V6.05507C14.2748 5.99977 14.2529 5.94915 14.2091 5.90318C14.1654 5.8571 14.1174 5.83406 14.0648 5.83406H4.93334C4.8808 5.83406 4.83271 5.8571 4.78904 5.90318C4.74527 5.94915 4.72338 5.99977 4.72338 6.05507V9.92195C4.72338 9.97725 4.74527 10.0279 4.78904 10.0738C4.83271 10.1199 4.8808 10.143 4.93334 10.143ZM3.70001 13.8718V12.7946H15.2981V13.8718H3.70001Z" fill="#AEAEAE"/>
</svg>
