<svg width="19" height="19" viewBox="0 0 19 19" fill="none" xmlns="http://www.w3.org/2000/svg">
<mask id="mask0_246_262" style="mask-type:alpha" maskUnits="userSpaceOnUse" x="0" y="0" width="19" height="19">
<rect width="19" height="19" fill="#5F5F5F"/>
</mask>
<g mask="url(#mask0_246_262)">
<path d="M14.6652 16L10.3089 11.5023C9.91276 11.824 9.45726 12.0757 8.94235 12.2575C8.42744 12.4394 7.89477 12.5303 7.34434 12.5303C5.99038 12.5303 4.8445 12.0692 3.9067 11.147C2.9689 10.2247 2.5 9.09786 2.5 7.7663C2.5 6.43487 2.96877 5.3076 3.90631 4.38448C4.84384 3.46149 5.98946 3 7.34315 3C8.69671 3 9.84272 3.46123 10.7812 4.3837C11.7195 5.30617 12.1887 6.43331 12.1887 7.76513C12.1887 8.32163 12.0937 8.85312 11.9039 9.35962C11.7139 9.86611 11.4605 10.3066 11.1436 10.6812L15.5 15.1787L14.6652 16ZM7.34434 11.3616C8.36505 11.3616 9.22958 11.0132 9.93792 10.3163C10.6464 9.61955 11.0006 8.76916 11.0006 7.76513C11.0006 6.76111 10.6464 5.91072 9.93792 5.21396C9.22958 4.51708 8.36505 4.16864 7.34434 4.16864C6.32362 4.16864 5.4591 4.51708 4.75076 5.21396C4.0423 5.91072 3.68806 6.76111 3.68806 7.76513C3.68806 8.76916 4.0423 9.61955 4.75076 10.3163C5.4591 11.0132 6.32362 11.3616 7.34434 11.3616Z" fill="#5F5F5F"/>
</g>
</svg>
