<svg width="19" height="19" viewBox="0 0 19 19" fill="none" xmlns="http://www.w3.org/2000/svg">
<g clip-path="url(#clip0_679_118)">
<mask id="mask0_679_118" style="mask-type:alpha" maskUnits="userSpaceOnUse" x="0" y="0" width="19" height="19">
<path d="M19 0H0V19H19V0Z" fill="#5F5F5F"/>
</mask>
<g mask="url(#mask0_679_118)">
<path d="M14.1652 16L9.8089 11.5023C9.41276 11.824 8.95726 12.0757 8.44235 12.2575C7.92744 12.4394 7.39477 12.5303 6.84434 12.5303C5.49038 12.5303 4.3445 12.0692 3.4067 11.147C2.4689 10.2247 2 9.09786 2 7.7663C2 6.43487 2.46877 5.3076 3.40631 4.38448C4.34384 3.46149 5.48946 3 6.84315 3C8.19671 3 9.34272 3.46123 10.2812 4.3837C11.2195 5.30617 11.6887 6.43331 11.6887 7.76513C11.6887 8.32163 11.5937 8.85312 11.4039 9.35962C11.2139 9.86611 10.9605 10.3066 10.6436 10.6812L15 15.1787L14.1652 16ZM6.84434 11.3616C7.86505 11.3616 8.72958 11.0132 9.43792 10.3163C10.1464 9.61955 10.5006 8.76916 10.5006 7.76513C10.5006 6.76111 10.1464 5.91072 9.43792 5.21396C8.72958 4.51708 7.86505 4.16864 6.84434 4.16864C5.82362 4.16864 4.9591 4.51708 4.25076 5.21396C3.5423 5.91072 3.18806 6.76111 3.18806 7.76513C3.18806 8.76916 3.5423 9.61955 4.25076 10.3163C4.9591 11.0132 5.82362 11.3616 6.84434 11.3616Z" fill="#A1A1A1"/>
</g>
</g>
<defs>
<clipPath id="clip0_679_118">
<rect width="19" height="19" fill="white"/>
</clipPath>
</defs>
</svg>
