<svg width="19" height="19" viewBox="0 0 19 19" fill="none" xmlns="http://www.w3.org/2000/svg">
<path d="M9.3345 15.6667C8.4585 15.6667 7.63511 15.5004 6.86433 15.168C6.09355 14.8356 5.42311 14.3844 4.853 13.8145C4.28289 13.2446 3.8315 12.5744 3.49883 11.804C3.16628 11.0336 3 10.2104 3 9.3345C3 8.4585 3.16622 7.63511 3.49867 6.86433C3.83111 6.09356 4.28228 5.42311 4.85217 4.853C5.42206 4.28289 6.09222 3.8315 6.86267 3.49883C7.63311 3.16628 8.45628 3 9.33217 3C10.2082 3 11.0316 3.16622 11.8023 3.49867C12.5731 3.83111 13.2436 4.28228 13.8137 4.85217C14.3838 5.42206 14.8352 6.09222 15.1678 6.86267C15.5004 7.63311 15.6667 8.45628 15.6667 9.33217C15.6667 10.2082 15.5004 11.0316 15.168 11.8023C14.8356 12.5731 14.3844 13.2436 13.8145 13.8137C13.2446 14.3838 12.5744 14.8352 11.804 15.1678C11.0336 15.5004 10.2104 15.6667 9.3345 15.6667ZM9.33333 14.6667C10.8222 14.6667 12.0833 14.15 13.1167 13.1167C14.15 12.0833 14.6667 10.8222 14.6667 9.33333C14.6667 7.84444 14.15 6.58333 13.1167 5.55C12.0833 4.51667 10.8222 4 9.33333 4C7.84445 4 6.58333 4.51667 5.55 5.55C4.51667 6.58333 4 7.84444 4 9.33333C4 10.8222 4.51667 12.0833 5.55 13.1167C6.58333 14.15 7.84445 14.6667 9.33333 14.6667Z" fill="#AEAEAE"/>
<path d="M12.8235 7.80581L8.5 12.1293L6.01184 9.6411L6.81765 8.83529L8.5 10.5176L12.0176 7L12.8235 7.80581Z" fill="#AEAEAE"/>
</svg>
