<svg width="19" height="19" viewBox="0 0 19 19" fill="none" xmlns="http://www.w3.org/2000/svg">
<path d="M4.91035 3.18335C4.57404 3.18335 4.28242 3.30481 4.04362 3.54362C3.80481 3.78242 3.68335 4.07404 3.68335 4.41035V4.56035H5.06035V3.18335H4.91035Z" fill="#AEAEAE"/>
<path d="M7.62435 3.18335H6.24752V4.56035H7.62435V3.18335Z" fill="#AEAEAE"/>
<path d="M10.1885 3.18335H8.81152V4.56035H10.1885V3.18335Z" fill="#AEAEAE"/>
<path d="M12.7525 3.18335H11.3757V4.56035H12.7525V3.18335Z" fill="#AEAEAE"/>
<path d="M14.0897 3.18335H13.9397V4.56035H15.3167V4.41035C15.3167 4.07404 15.1952 3.78242 14.9564 3.54362C14.7176 3.30481 14.426 3.18335 14.0897 3.18335Z" fill="#AEAEAE"/>
<path d="M5.06035 5.74752H3.68335V7.12435H5.06035V5.74752Z" fill="#AEAEAE"/>
<path d="M15.3167 5.74752H13.9397V7.12435H15.3167V5.74752Z" fill="#AEAEAE"/>
<path d="M5.06035 8.31152H3.68335V9.68852H5.06035V8.31152Z" fill="#AEAEAE"/>
<path d="M15.3167 8.31152H13.9397V9.68852H15.3167V8.31152Z" fill="#AEAEAE"/>
<path d="M5.06035 10.8757H3.68335V12.2525H5.06035V10.8757Z" fill="#AEAEAE"/>
<path d="M15.3167 10.8757H13.9397V12.2525H15.3167V10.8757Z" fill="#AEAEAE"/>
<path d="M5.06035 13.4397H3.68335V13.5897C3.68335 13.926 3.80481 14.2176 4.04362 14.4564C4.28242 14.6952 4.57404 14.8167 4.91035 14.8167H5.06035V13.4397Z" fill="#AEAEAE"/>
<path d="M7.62435 13.4397H6.24752V14.8167H7.62435V13.4397Z" fill="#AEAEAE"/>
<path d="M10.1885 13.4397H8.81152V14.8167H10.1885V13.4397Z" fill="#AEAEAE"/>
<path d="M12.7525 13.4397H11.3757V14.8167H12.7525V13.4397Z" fill="#AEAEAE"/>
<path d="M15.3167 13.4397H13.9397V14.8167H14.0897C14.426 14.8167 14.7176 14.6952 14.9564 14.4564C15.1952 14.2176 15.3167 13.926 15.3167 13.5897V13.4397Z" fill="#AEAEAE"/>
</svg>
