<svg width="19" height="19" viewBox="0 0 19 19" fill="none" xmlns="http://www.w3.org/2000/svg">
<mask id="mask0_168_64" style="mask-type:alpha" maskUnits="userSpaceOnUse" x="0" y="0" width="19" height="19">
<rect width="19" height="19" fill="white"/>
</mask>
<g mask="url(#mask0_168_64)">
<path d="M12.8316 15.7807L14.8656 13.7528V15.4149H15.5408V12.6057H12.723V13.2786H14.3901L12.3561 15.3067L12.8316 15.7807ZM4.3796 15.9344C3.99904 15.9344 3.67393 15.8 3.40428 15.5313C3.13476 15.2625 3 14.9384 3 14.559V4.37542C3 3.99601 3.13476 3.67189 3.40428 3.40306C3.67393 3.13435 3.99904 3 4.3796 3H14.5941C14.9746 3 15.2998 3.13435 15.5694 3.40306C15.8389 3.67189 15.9737 3.99601 15.9737 4.37542V9.18776C15.7858 9.10775 15.5977 9.03997 15.4093 8.98443C15.221 8.92876 15.0275 8.88438 14.8289 8.85128V4.37542C14.8289 4.31683 14.8045 4.26319 14.7555 4.2145C14.7067 4.16568 14.6528 4.14127 14.5941 4.14127H4.3796C4.32084 4.14127 4.26703 4.16568 4.21819 4.2145C4.16922 4.26319 4.14474 4.31683 4.14474 4.37542V14.559C4.14474 14.6175 4.16922 14.6712 4.21819 14.7199C4.26703 14.7687 4.32084 14.7931 4.3796 14.7931H8.84999C8.87835 15.0037 8.92039 15.2029 8.9761 15.3907C9.03194 15.5785 9.09992 15.7598 9.18005 15.9344H4.3796ZM4.14474 14.7931V4.14127V8.85128V8.79422V14.7931ZM5.86184 12.9933H8.92764C8.96096 12.7954 9.01038 12.6025 9.07588 12.4147C9.14151 12.2269 9.21293 12.0394 9.29014 11.8522H5.86184V12.9933ZM5.86184 10.0378H10.7006C11.0293 9.75986 11.38 9.52697 11.7528 9.33917C12.1257 9.15137 12.5248 9.01797 12.9504 8.93897V8.89655H5.86184V10.0378ZM5.86184 7.08213H13.1118V5.94105H5.86184V7.08213ZM14.0658 17.5C13.1129 17.5 12.3023 17.1669 11.634 16.5006C10.9657 15.8344 10.6316 15.0262 10.6316 14.0762C10.6316 13.1262 10.9657 12.318 11.634 11.6518C12.3023 10.9855 13.1129 10.6524 14.0658 10.6524C15.0187 10.6524 15.8293 10.9855 16.4976 11.6518C17.1659 12.318 17.5 13.1262 17.5 14.0762C17.5 15.0262 17.1659 15.8344 16.4976 16.5006C15.8293 17.1669 15.0187 17.5 14.0658 17.5Z" fill="white"/>
</g>
</svg>
