<svg width="19" height="19" viewBox="0 0 19 19" fill="none" xmlns="http://www.w3.org/2000/svg">
<path d="M7.90354 16L7.64014 13.9157C7.45486 13.8544 7.26485 13.7684 7.07011 13.6579C6.87549 13.5473 6.70145 13.4289 6.54799 13.3027L4.59629 14.1184L3 11.3816L4.68813 10.1197C4.67221 10.018 4.66091 9.91583 4.65423 9.8132C4.64754 9.71057 4.6442 9.60833 4.6442 9.5065C4.6442 9.40923 4.64754 9.31036 4.65423 9.20989C4.66091 9.10943 4.67221 8.99956 4.68813 8.88028L3 7.61842L4.59629 4.89475L6.54124 5.704C6.70808 5.57332 6.88615 5.45381 7.07547 5.34547C7.26479 5.23714 7.45082 5.15007 7.63357 5.08428L7.90354 3H11.0965L11.3599 5.09078C11.5674 5.16536 11.7552 5.25242 11.9231 5.35197C12.0912 5.45153 12.2609 5.56887 12.4321 5.704L14.4037 4.89475L16 7.61842L14.2852 8.89995C14.31 9.01045 14.3236 9.11376 14.3259 9.20989C14.3281 9.30591 14.3292 9.40261 14.3292 9.5C14.3292 9.59294 14.3269 9.68747 14.3224 9.78361C14.318 9.87962 14.3021 9.9895 14.2747 10.1132L15.9761 11.3816L14.3797 14.1184L12.4321 13.296C12.2609 13.4311 12.0862 13.5506 11.9079 13.6545C11.7297 13.7585 11.547 13.8434 11.3599 13.9092L11.0965 16H7.90354ZM8.80822 14.9737H10.1679L10.4166 13.1409C10.7697 13.0496 11.0923 12.92 11.3844 12.7521C11.6767 12.584 11.9585 12.3679 12.2299 12.1039L13.9487 12.8184L14.6299 11.6553L13.1293 10.5369C13.1869 10.3597 13.2261 10.186 13.2469 10.0157C13.2677 9.84558 13.2782 9.67368 13.2782 9.5C13.2782 9.32188 13.2677 9.14997 13.2469 8.98428C13.2261 8.81847 13.1869 8.64913 13.1293 8.47625L14.6431 7.34474L13.962 6.18158L12.2232 6.9065C11.9917 6.66178 11.7143 6.44557 11.3912 6.25787C11.0679 6.07017 10.7408 5.93726 10.41 5.85915L10.1918 4.02632H8.81894L8.58996 5.85265C8.23703 5.93509 7.91115 6.06139 7.61229 6.23153C7.31333 6.40178 7.02814 6.62107 6.75673 6.88939L5.03799 6.18158L4.35693 7.34474L5.85084 8.44597C5.79319 8.60836 5.75284 8.77725 5.72978 8.95263C5.70672 9.12802 5.69519 9.31264 5.69519 9.5065C5.69519 9.68462 5.70672 9.85921 5.72978 10.0303C5.75284 10.2013 5.791 10.3702 5.84427 10.5369L4.35693 11.6553L5.03799 12.8184L6.75016 12.1C7.01269 12.3666 7.29338 12.585 7.59223 12.7553C7.8912 12.9254 8.22158 13.0561 8.58339 13.1474L8.80822 14.9737ZM9.50796 11.5526C10.0835 11.5526 10.5733 11.3528 10.9773 10.9533C11.3813 10.5537 11.5833 10.0693 11.5833 9.5C11.5833 8.93074 11.3813 8.44632 10.9773 8.04674C10.5733 7.64716 10.0835 7.44737 9.50796 7.44737C8.92524 7.44737 8.43367 7.64716 8.03325 8.04674C7.63282 8.44632 7.4326 8.93074 7.4326 9.5C7.4326 10.0693 7.63282 10.5537 8.03325 10.9533C8.43367 11.3528 8.92524 11.5526 9.50796 11.5526Z" fill="#AEAEAE"/>
</svg>
