<svg width="19" height="19" viewBox="0 0 19 19" fill="none" xmlns="http://www.w3.org/2000/svg">
<mask id="mask0_46_33" style="mask-type:alpha" maskUnits="userSpaceOnUse" x="0" y="0" width="19" height="19">
<rect width="19" height="19" fill="#AEAEAE"/>
</mask>
<g mask="url(#mask0_46_33)">
<path d="M4.20207 16.2292C3.80729 16.2292 3.47004 16.0894 3.19032 15.8098C2.91073 15.5301 2.77094 15.1928 2.77094 14.7981V4.20201C2.77094 3.80723 2.91073 3.46998 3.19032 3.19026C3.47004 2.91067 3.80729 2.77087 4.20207 2.77087H14.7981C15.1929 2.77087 15.5302 2.91067 15.8099 3.19026C16.0895 3.46998 16.2293 3.80723 16.2293 4.20201V14.7981C16.2293 15.1928 16.0895 15.5301 15.8099 15.8098C15.5302 16.0894 15.1929 16.2292 14.7981 16.2292H4.20207ZM6.33343 15.0417V3.95837H4.20207C4.14111 3.95837 4.0853 3.98377 4.03463 4.03457C3.98383 4.08524 3.95843 4.14105 3.95843 4.20201V14.7981C3.95843 14.859 3.98383 14.9148 4.03463 14.9655C4.0853 15.0163 4.14111 15.0417 4.20207 15.0417H6.33343ZM7.52093 15.0417H14.7981C14.8591 15.0417 14.9149 15.0163 14.9656 14.9655C15.0164 14.9148 15.0418 14.859 15.0418 14.7981V4.20201C15.0418 4.14105 15.0164 4.08524 14.9656 4.03457C14.9149 3.98377 14.8591 3.95837 14.7981 3.95837H7.52093V15.0417Z" fill="#AEAEAE"/>
</g>
</svg>
