<svg width="19" height="19" viewBox="0 0 19 19" fill="none" xmlns="http://www.w3.org/2000/svg">
<path d="M3.88763 8.91706H6.13129C6.07386 8.41246 5.93311 7.93173 5.70906 7.47487C5.48501 7.018 5.19855 6.61513 4.84968 6.26626C4.58631 6.65066 4.37155 7.06489 4.20541 7.50897C4.03915 7.95305 3.93322 8.42241 3.88763 8.91706ZM12.9687 8.91706H15.2124C15.1668 8.42703 15.0608 7.9611 14.8946 7.51927C14.7284 7.07744 14.5137 6.66433 14.2503 6.27994C13.8878 6.63331 13.5979 7.03499 13.3806 7.48499C13.1634 7.93511 13.0261 8.41246 12.9687 8.91706ZM4.84968 12.62C5.19855 12.2666 5.48501 11.8649 5.70906 11.4149C5.93311 10.9648 6.07386 10.4874 6.13129 9.98285H3.88763C3.93772 10.4775 4.04477 10.9445 4.20878 11.384C4.37268 11.8236 4.58631 12.2356 4.84968 12.62ZM14.2503 12.62C14.5137 12.2356 14.7284 11.8225 14.8946 11.3806C15.0608 10.9388 15.1668 10.4729 15.2124 9.98285H12.9687C13.0261 10.4874 13.1634 10.9648 13.3806 11.4149C13.5979 11.8649 13.8878 12.2666 14.2503 12.62ZM7.21893 8.91706H9.01709V3.78759C8.33025 3.85959 7.68894 4.03769 7.09317 4.3219C6.49739 4.60612 5.97272 4.98275 5.51917 5.45182C5.99013 5.91556 6.37317 6.44028 6.66827 7.02599C6.96338 7.6117 7.14693 8.24206 7.21893 8.91706ZM10.0829 8.91706H11.881C11.953 8.24206 12.1355 7.60939 12.4283 7.01906C12.7212 6.42885 13.1053 5.90644 13.5808 5.45182C13.1273 4.98275 12.6026 4.60612 12.0068 4.3219C11.411 4.03769 10.7697 3.85959 10.0829 3.78759V8.91706ZM9.01709 15.1123V9.98285H7.21893C7.14693 10.667 6.9645 11.2996 6.67165 11.8808C6.37879 12.4619 5.99463 12.9798 5.51917 13.4344C5.97272 13.9035 6.49514 14.2824 7.08642 14.5712C7.67757 14.86 8.32113 15.0403 9.01709 15.1123ZM10.0829 15.1123C10.7697 15.0403 11.411 14.8622 12.0068 14.578C12.6026 14.2938 13.1273 13.9171 13.5808 13.4481C13.1053 12.9935 12.7212 12.4733 12.4283 11.8876C12.1355 11.3019 11.953 10.667 11.881 9.98285H10.0829V15.1123ZM9.54999 16.2C8.61718 16.2 7.74022 16.0226 6.91909 15.6678C6.09784 15.313 5.3834 14.8318 4.77578 14.2242C4.16817 13.6165 3.68696 12.9021 3.33217 12.0809C2.97738 11.2597 2.79999 10.3828 2.79999 9.44995C2.79999 8.51715 2.97738 7.64018 3.33217 6.81905C3.68696 5.9978 4.16817 5.28337 4.77578 4.67575C5.3834 4.06813 6.09784 3.58693 6.91909 3.23214C7.74022 2.87735 8.61718 2.69995 9.54999 2.69995C10.4828 2.69995 11.3598 2.87735 12.1809 3.23214C13.0021 3.58693 13.7166 4.06813 14.3242 4.67575C14.9318 5.28337 15.413 5.9978 15.7678 6.81905C16.1226 7.64018 16.3 8.51715 16.3 9.44995C16.3 10.3828 16.1226 11.2597 15.7678 12.0809C15.413 12.9021 14.9318 13.6165 14.3242 14.2242C13.7166 14.8318 13.0021 15.313 12.1809 15.6678C11.3598 16.0226 10.4828 16.2 9.54999 16.2Z" fill="#AEAEAE"/>
</svg>
