<svg width="19" height="19" viewBox="0 0 19 19" fill="none" xmlns="http://www.w3.org/2000/svg">
<mask id="mask0_79_247" style="mask-type:alpha" maskUnits="userSpaceOnUse" x="1" y="1" width="16" height="16">
<rect x="1.90002" y="1.90002" width="14.9765" height="14.9765" fill="#D9D9D9"/>
</mask>
<g mask="url(#mask0_79_247)">
<path d="M9.53738 15.5C8.68464 15.5 7.87916 15.3357 7.12094 15.0072C6.3626 14.6787 5.70049 14.2315 5.13459 13.6655C4.56858 13.0996 4.12132 12.4364 3.79281 11.676C3.4643 10.9156 3.30005 10.1069 3.30005 9.25C3.30005 8.38213 3.46874 7.56798 3.80613 6.80757C4.14352 6.04715 4.60175 5.38569 5.18081 4.82319C5.75975 4.26058 6.43706 3.81606 7.21271 3.48964C7.98826 3.16321 8.81545 3 9.69429 3C10.5167 3 11.296 3.14024 12.0323 3.42072C12.7687 3.70121 13.4154 4.08942 13.9724 4.58536C14.5295 5.08131 14.9734 5.67067 15.304 6.35345C15.6347 7.03613 15.8 7.77643 15.8 8.57434C15.8 9.71305 15.4616 10.6037 14.7848 11.2464C14.1079 11.8891 13.2402 12.2105 12.1816 12.2105H10.9899C10.8026 12.2105 10.6528 12.2717 10.5407 12.3939C10.4285 12.5163 10.3724 12.661 10.3724 12.828C10.3724 13.0313 10.4547 13.2425 10.6191 13.4618C10.7836 13.6811 10.8658 13.9329 10.8658 14.2171C10.8658 14.6514 10.7457 14.9738 10.5053 15.1844C10.2649 15.3948 9.94221 15.5 9.53738 15.5ZM5.93163 9.74342C6.16606 9.74342 6.36173 9.66497 6.51863 9.50806C6.67554 9.35115 6.754 9.15548 6.754 8.92105C6.754 8.68662 6.67554 8.49095 6.51863 8.33405C6.36173 8.17714 6.16606 8.09868 5.93163 8.09868C5.6972 8.09868 5.50153 8.17714 5.34462 8.33405C5.18771 8.49095 5.10926 8.68662 5.10926 8.92105C5.10926 9.15548 5.18771 9.35115 5.34462 9.50806C5.50153 9.66497 5.6972 9.74342 5.93163 9.74342ZM7.90531 7.11184C8.13974 7.11184 8.33541 7.03339 8.49232 6.87648C8.64923 6.71957 8.72768 6.5239 8.72768 6.28947C8.72768 6.05504 8.64923 5.85937 8.49232 5.70247C8.33541 5.54556 8.13974 5.46711 7.90531 5.46711C7.67088 5.46711 7.47521 5.54556 7.31831 5.70247C7.1614 5.85937 7.08294 6.05504 7.08294 6.28947C7.08294 6.5239 7.1614 6.71957 7.31831 6.87648C7.47521 7.03339 7.67088 7.11184 7.90531 7.11184ZM11.1948 7.11184C11.4292 7.11184 11.6249 7.03339 11.7818 6.87648C11.9387 6.71957 12.0172 6.5239 12.0172 6.28947C12.0172 6.05504 11.9387 5.85937 11.7818 5.70247C11.6249 5.54556 11.4292 5.46711 11.1948 5.46711C10.9604 5.46711 10.7647 5.54556 10.6078 5.70247C10.4509 5.85937 10.3724 6.05504 10.3724 6.28947C10.3724 6.5239 10.4509 6.71957 10.6078 6.87648C10.7647 7.03339 10.9604 7.11184 11.1948 7.11184ZM13.1685 9.74342C13.4029 9.74342 13.5986 9.66497 13.7555 9.50806C13.9124 9.35115 13.9908 9.15548 13.9908 8.92105C13.9908 8.68662 13.9124 8.49095 13.7555 8.33405C13.5986 8.17714 13.4029 8.09868 13.1685 8.09868C12.934 8.09868 12.7384 8.17714 12.5815 8.33405C12.4246 8.49095 12.3461 8.68662 12.3461 8.92105C12.3461 9.15548 12.4246 9.35115 12.5815 9.50806C12.7384 9.66497 12.934 9.74342 13.1685 9.74342ZM9.53738 14.5132C9.64451 14.5132 9.72823 14.4868 9.78854 14.434C9.84884 14.3813 9.879 14.309 9.879 14.2171C9.879 14.0636 9.79676 13.8911 9.63229 13.6997C9.46781 13.5082 9.38558 13.2084 9.38558 12.8002C9.38558 12.3312 9.54457 11.9512 9.86255 11.6602C10.1805 11.3692 10.5698 11.2237 11.0303 11.2237H12.1816C12.956 11.2237 13.5882 10.9968 14.0782 10.5431C14.5682 10.0893 14.8132 9.433 14.8132 8.57434C14.8132 7.24342 14.3029 6.14611 13.2823 5.2824C12.2618 4.4187 11.0658 3.98684 9.69429 3.98684C8.19045 3.98684 6.91326 4.49671 5.86271 5.51645C4.81217 6.53618 4.28689 7.7807 4.28689 9.25C4.28689 10.7083 4.7995 11.9501 5.82472 12.9753C6.84994 14.0005 8.08749 14.5132 9.53738 14.5132Z" fill="#AEAEAE"/>
</g>
</svg>
