<svg width="19" height="19" viewBox="0 0 19 19" fill="none" xmlns="http://www.w3.org/2000/svg">
<mask id="mask0_517_16" style="mask-type:alpha" maskUnits="userSpaceOnUse" x="2" y="2" width="16" height="16">
<rect x="2" y="2" width="16" height="16" fill="#AEAEAE"/>
</mask>
<g mask="url(#mask0_517_16)">
<path d="M4.97856 2.80509H6.01515L8.49371 8.76316H7.45565L6.86961 7.31509H4.1241L3.53806 8.76316H2.5L4.97856 2.80509ZM4.87262 9.85088C5.33492 9.85088 5.72586 10.0036 6.04544 10.3091C6.36514 10.6145 6.525 10.9881 6.525 11.4298C6.525 11.6413 6.48497 11.8439 6.40492 12.0377C6.32487 12.2316 6.20627 12.4037 6.04911 12.554L5.64648 12.9211L6.41484 13.6619L7.46134 12.6795L8.24658 13.4298L7.21844 14.4189L8.24658 15.4123L7.46134 16.1451L6.4332 15.1626L5.53504 16.0277C5.37017 16.1851 5.18211 16.3032 4.97085 16.3819C4.75947 16.4606 4.53701 16.5 4.30347 16.5C3.84595 16.5 3.46229 16.3443 3.1525 16.033C2.84271 15.7218 2.68782 15.3453 2.68782 14.9035C2.68782 14.692 2.7309 14.4894 2.81707 14.2956C2.90324 14.1017 3.0249 13.9296 3.18206 13.7793L4.08738 12.9144L3.69613 12.5472C3.53898 12.397 3.41731 12.2279 3.33114 12.0398C3.24498 11.8518 3.20189 11.6543 3.20189 11.4474C3.20189 11.0056 3.3648 10.6291 3.69063 10.3179C4.01633 10.0065 4.41033 9.85088 4.87262 9.85088ZM4.87262 13.6714L3.95611 14.5365C3.90519 14.585 3.86774 14.641 3.84375 14.7044C3.81976 14.7679 3.80776 14.8343 3.80776 14.9035C3.80776 15.0465 3.85905 15.1701 3.96162 15.274C4.06431 15.3779 4.1905 15.4298 4.34019 15.4298C4.41265 15.4298 4.48089 15.4165 4.5449 15.39C4.60904 15.3634 4.66883 15.3236 4.72428 15.2705L5.64098 14.4056L4.87262 13.6714ZM4.85426 10.9035C4.70457 10.9035 4.57838 10.9554 4.47569 11.0593C4.37312 11.1633 4.32183 11.2868 4.32183 11.4298C4.32183 11.4991 4.33383 11.5654 4.35782 11.6289C4.38181 11.6923 4.41926 11.7483 4.47018 11.7968L4.86565 12.1707L5.23835 11.8144C5.29392 11.7614 5.33559 11.7043 5.36338 11.643C5.39116 11.5818 5.40505 11.5166 5.40505 11.4474C5.40505 11.2998 5.35187 11.1722 5.24551 11.0647C5.13914 10.9573 5.00873 10.9035 4.85426 10.9035ZM5.46013 3.9507L4.44613 6.47035H6.54758L5.53357 3.9507H5.46013ZM13.4451 2.5C13.529 2.62959 13.5987 2.76275 13.6542 2.89947C13.7098 3.0362 13.7574 3.1752 13.7969 3.31649L13.1062 3.51754H16.5V4.57018H15.4394C15.3141 4.99216 15.1326 5.38801 14.8948 5.75772C14.6571 6.12754 14.3763 6.46316 14.0525 6.76456C14.3924 6.96971 14.7457 7.14152 15.1124 7.28C15.4791 7.4186 15.8592 7.53468 16.2529 7.62825L15.9958 8.64842C15.493 8.52877 15.0055 8.3731 14.5333 8.1814C14.0612 7.98982 13.6105 7.75006 13.1811 7.46211C12.7471 7.74281 12.2893 7.97854 11.8076 8.1693C11.3261 8.36006 10.8292 8.51754 10.317 8.64175L10.0642 7.63491C10.4597 7.54134 10.8466 7.42532 11.2251 7.28684C11.6035 7.14824 11.9651 6.97415 12.3098 6.76456C11.9953 6.4586 11.7227 6.12076 11.492 5.75105C11.2613 5.38123 11.0871 4.9876 10.9695 4.57018H9.80569V3.51754H12.7757C12.7438 3.38795 12.7043 3.26246 12.6571 3.14105C12.61 3.01965 12.5582 2.9 12.5018 2.78211L13.4451 2.5ZM15.4111 10.1882L16.1963 10.9211L10.7477 16.1275L9.96248 15.3947L15.4111 10.1882ZM11.3169 10.5175C11.5711 10.5175 11.7876 10.603 11.9664 10.774C12.1454 10.9449 12.2349 11.1518 12.2349 11.3947C12.2349 11.6377 12.1454 11.8446 11.9664 12.0154C11.7876 12.1864 11.5711 12.2719 11.3169 12.2719C11.0627 12.2719 10.8461 12.1864 10.6673 12.0154C10.4884 11.8446 10.3989 11.6377 10.3989 11.3947C10.3989 11.1518 10.4884 10.9449 10.6673 10.774C10.8461 10.603 11.0627 10.5175 11.3169 10.5175ZM12.1275 4.57018C12.2254 4.86889 12.3643 5.14912 12.5442 5.41088C12.724 5.67275 12.9363 5.91164 13.1811 6.12754C13.4306 5.91164 13.6487 5.67275 13.8356 5.41088C14.0225 5.14912 14.1711 4.86889 14.2812 4.57018H12.1275ZM14.9888 14.0263C15.243 14.0263 15.4596 14.1118 15.6384 14.2828C15.8173 14.4537 15.9068 14.6606 15.9068 14.9035C15.9068 15.1464 15.8173 15.3533 15.6384 15.5242C15.4596 15.6952 15.243 15.7807 14.9888 15.7807C14.7346 15.7807 14.5181 15.6952 14.3392 15.5242C14.1603 15.3533 14.0708 15.1464 14.0708 14.9035C14.0708 14.6606 14.1603 14.4537 14.3392 14.2828C14.5181 14.1118 14.7346 14.0263 14.9888 14.0263Z" fill="#AEAEAE"/>
</g>
</svg>
