<svg width="19" height="19" viewBox="0 0 19 19" fill="none" xmlns="http://www.w3.org/2000/svg">
<mask id="mask0_419_166" style="mask-type:alpha" maskUnits="userSpaceOnUse" x="0" y="0" width="19" height="19">
<rect width="19" height="19" fill="#AEAEAE"/>
</mask>
<g mask="url(#mask0_419_166)">
<path d="M9.49996 14.0852C8.26879 14.0852 7.3079 13.7114 6.61731 12.964C5.92658 12.2165 5.58121 11.215 5.58121 9.95941V3.70227H7.04876V10.0324C7.04876 10.8323 7.26139 11.4733 7.68665 11.9554C8.11191 12.4375 8.71634 12.6786 9.49996 12.6786C10.2836 12.6786 10.888 12.4375 11.3133 11.9554C11.7385 11.4733 11.9512 10.8323 11.9512 10.0324V3.70227H13.4187V9.95941C13.4187 11.215 13.0733 12.2165 12.3826 12.964C11.692 13.7114 10.7311 14.0852 9.49996 14.0852Z" fill="#AEAEAE"/>
<path d="M5.24806 17.2625C5.44231 17.3375 5.62838 17.375 5.80625 17.375C5.9765 17.375 6.15944 17.3394 6.35506 17.2683C6.55069 17.1971 6.71488 17.1076 6.84763 17C6.94763 16.9279 7.05913 16.8473 7.18213 16.7583C7.30525 16.6694 7.42788 16.625 7.55 16.625C7.67975 16.625 7.79994 16.6694 7.91056 16.7583C8.02119 16.8473 8.12887 16.9279 8.23362 17C8.374 17.1076 8.54131 17.1971 8.73556 17.2683C8.92981 17.3394 9.11587 17.375 9.29375 17.375C9.47162 17.375 9.65769 17.3394 9.85194 17.2683C10.0462 17.1971 10.2135 17.1076 10.3539 17C10.4586 16.9279 10.5694 16.8473 10.6863 16.7583C10.8032 16.6694 10.9265 16.625 11.0562 16.625C11.186 16.625 11.3081 16.6694 11.4226 16.7583C11.537 16.8473 11.6466 16.9279 11.7515 17C11.8919 17.1 12.0592 17.1875 12.2534 17.2625C12.4476 17.3375 12.6298 17.375 12.8 17.375C12.9779 17.375 13.1671 17.3375 13.3676 17.2625C13.5681 17.1875 13.7409 17.1 13.886 17C13.9909 16.9279 14.1005 16.8473 14.2149 16.7583C14.3294 16.6694 14.4515 16.625 14.5813 16.625H15V15.5H14.5813C14.4034 15.5 14.2173 15.5375 14.0231 15.6125C13.8288 15.6875 13.6615 15.775 13.5211 15.875C13.4164 15.9471 13.3087 16.0277 13.1981 16.1167C13.0874 16.2056 12.9672 16.25 12.8375 16.25C12.7077 16.25 12.5844 16.2056 12.4676 16.1167C12.3507 16.0277 12.2399 15.9471 12.1351 15.875C11.9947 15.775 11.8255 15.6875 11.6274 15.6125C11.4294 15.5375 11.2453 15.5 11.075 15.5C10.8971 15.5 10.7111 15.5356 10.5168 15.6067C10.3226 15.6779 10.1553 15.7674 10.0149 15.875C9.91488 15.9471 9.80525 16.0277 9.686 16.1167C9.56675 16.2056 9.44225 16.25 9.3125 16.25C9.18275 16.25 9.06137 16.2056 8.94837 16.1167C8.83537 16.0277 8.72888 15.9471 8.62888 15.875C8.4885 15.7674 8.32119 15.6779 8.12694 15.6067C7.93269 15.5356 7.74663 15.5 7.56875 15.5C7.39088 15.5 7.20481 15.5356 7.01056 15.6067C6.81631 15.6779 6.649 15.7674 6.50863 15.875C6.40863 15.9471 6.299 16.0277 6.17975 16.1167C6.0605 16.2056 5.936 16.25 5.80625 16.25C5.68413 16.25 5.56463 16.2056 5.44775 16.1167C5.331 16.0277 5.22263 15.9471 5.12263 15.875C4.98225 15.775 4.81494 15.6875 4.62069 15.6125C4.42644 15.5375 4.24038 15.5 4.0625 15.5H4V16.625H4.0625C4.18463 16.625 4.30412 16.6694 4.421 16.7583C4.53775 16.8473 4.64613 16.9279 4.74613 17C4.8865 17.1 5.05381 17.1875 5.24806 17.2625Z" fill="#AEAEAE"/>
</g>
</svg>
