<svg width="19" height="19" viewBox="0 0 19 19" fill="none" xmlns="http://www.w3.org/2000/svg">
<path d="M6.48572 13.1471C6.67753 13.1471 6.83819 13.0822 6.96768 12.9525C7.09704 12.8227 7.16172 12.6619 7.16172 12.4701C7.16172 12.2783 7.09685 12.1177 6.9671 11.9882C6.83736 11.8588 6.67658 11.7941 6.48476 11.7941C6.29295 11.7941 6.13236 11.859 6.003 11.9887C5.87351 12.1185 5.80877 12.2793 5.80877 12.4711C5.80877 12.6629 5.87364 12.8235 6.00338 12.9528C6.13326 13.0823 6.29403 13.1471 6.48572 13.1471ZM6.48572 10.1764C6.67753 10.1764 6.83819 10.1115 6.96768 9.98176C7.09704 9.85202 7.16172 9.69124 7.16172 9.49943C7.16172 9.30761 7.09685 9.14702 6.9671 9.01766C6.83736 8.8883 6.67658 8.82362 6.48476 8.82362C6.29295 8.82362 6.13236 8.88849 6.003 9.01824C5.87351 9.14798 5.80877 9.30876 5.80877 9.50057C5.80877 9.69239 5.87364 9.85298 6.00338 9.98234C6.13326 10.1117 6.29403 10.1764 6.48572 10.1764ZM6.48572 7.20588C6.67753 7.20588 6.83819 7.14101 6.96768 7.01126C7.09704 6.88152 7.16172 6.72074 7.16172 6.52893C7.16172 6.33711 7.09685 6.17652 6.9671 6.04716C6.83736 5.91767 6.67658 5.85293 6.48476 5.85293C6.29295 5.85293 6.13236 5.9178 6.003 6.04754C5.87351 6.17729 5.80877 6.33807 5.80877 6.52988C5.80877 6.7217 5.87364 6.88235 6.00338 7.01184C6.13326 7.1412 6.29403 7.20588 6.48572 7.20588ZM8.8089 13.044H13.1618V11.8972H8.8089V13.044ZM8.8089 10.0735H13.1618V8.92647H8.8089V10.0735ZM8.8089 7.10284H13.1618V5.95597H8.8089V7.10284ZM4.3824 16C3.99609 16 3.66912 15.8662 3.40147 15.5985C3.13382 15.3309 3 15.0039 3 14.6176V4.3824C3 3.99609 3.13382 3.66912 3.40147 3.40147C3.66912 3.13382 3.99609 3 4.3824 3H14.6176C15.0039 3 15.3309 3.13382 15.5985 3.40147C15.8662 3.66912 16 3.99609 16 4.3824V14.6176C16 15.0039 15.8662 15.3309 15.5985 15.5985C15.3309 15.8662 15.0039 16 14.6176 16H4.3824ZM4.3824 14.8529H14.6176C14.6765 14.8529 14.7304 14.8284 14.7793 14.7793C14.8284 14.7304 14.8529 14.6765 14.8529 14.6176V4.3824C14.8529 4.32351 14.8284 4.2696 14.7793 4.22066C14.7304 4.17159 14.6765 4.14706 14.6176 4.14706H4.3824C4.32351 4.14706 4.2696 4.17159 4.22066 4.22066C4.17159 4.2696 4.14706 4.32351 4.14706 4.3824V14.6176C4.14706 14.6765 4.17159 14.7304 4.22066 14.7793C4.2696 14.8284 4.32351 14.8529 4.3824 14.8529Z" fill="#AEAEAE"/>
</svg>
