<svg width="19" height="19" viewBox="0 0 19 19" fill="none" xmlns="http://www.w3.org/2000/svg">
<mask id="mask0_409_95" style="mask-type:alpha" maskUnits="userSpaceOnUse" x="1" y="1" width="17" height="17">
<rect x="1" y="1" width="17" height="17" fill="#AEAEAE"/>
</mask>
<g mask="url(#mask0_409_95)">
<path d="M11.2772 12.5435L9.27538 14.5453C8.60852 15.2122 7.80509 15.5456 6.86508 15.5456C5.92515 15.5457 5.12181 15.2124 4.45503 14.5456C3.78826 13.8788 3.45484 13.0754 3.45475 12.1353C3.45457 11.1951 3.78791 10.3916 4.45477 9.7247L6.45654 7.72293L7.25316 8.51955L5.25139 10.5213C4.80537 10.9673 4.58241 11.5052 4.58249 12.135C4.58249 12.7649 4.80546 13.3028 5.25139 13.7487C5.69732 14.1946 6.23521 14.4176 6.86508 14.4176C7.49485 14.4177 8.03274 14.1947 8.47876 13.7487L10.4805 11.7469L11.2772 12.5435ZM7.90679 11.8899L7.11017 11.0933L11.0933 7.1102L11.8899 7.90682L7.90679 11.8899ZM12.5435 11.2772L11.7469 10.4806L13.7487 8.47879C14.1947 8.03277 14.4177 7.49488 14.4176 6.8651C14.4176 6.23524 14.1946 5.69735 13.7487 5.25142C13.3027 4.80549 12.7648 4.58252 12.135 4.58252C11.5052 4.58243 10.9673 4.8054 10.5213 5.25142L8.51952 7.25319L7.7229 6.45657L9.72468 4.4548C10.3915 3.78794 11.195 3.45451 12.135 3.45451C13.0749 3.45442 13.8783 3.78776 14.545 4.45453C15.2118 5.1213 15.5452 5.92474 15.5453 6.86484C15.5455 7.80503 15.2121 8.60855 14.5453 9.27541L12.5435 11.2772Z" fill="#AEAEAE"/>
</g>
</svg>
