<svg width="19" height="19" viewBox="0 0 19 19" fill="none" xmlns="http://www.w3.org/2000/svg">
<mask id="mask0_403_77" style="mask-type:alpha" maskUnits="userSpaceOnUse" x="0" y="0" width="19" height="19">
<rect width="19" height="19" fill="#AEAEAE"/>
</mask>
<g mask="url(#mask0_403_77)">
<path d="M4.23242 16.9322V15.7447H14.7675V16.9322H4.23242ZM9.49997 14.0852C8.2688 14.0852 7.30792 13.7114 6.61732 12.964C5.92659 12.2165 5.58122 11.215 5.58122 9.95941V3.70227H7.04878V10.0324C7.04878 10.8323 7.2614 11.4733 7.68666 11.9554C8.11192 12.4375 8.71636 12.6786 9.49997 12.6786C10.2836 12.6786 10.888 12.4375 11.3133 11.9554C11.7385 11.4733 11.9512 10.8323 11.9512 10.0324V3.70227H13.4187V9.95941C13.4187 11.215 13.0734 12.2165 12.3826 12.964C11.692 13.7114 10.7311 14.0852 9.49997 14.0852Z" fill="#AEAEAE"/>
</g>
</svg>
