<svg width="19" height="19" viewBox="0 0 19 19" fill="none" xmlns="http://www.w3.org/2000/svg">
<mask id="mask0_489_10" style="mask-type:alpha" maskUnits="userSpaceOnUse" x="1" y="1" width="17" height="17">
<rect x="1" y="1" width="17" height="17" fill="#AEAEAE"/>
</mask>
<g mask="url(#mask0_489_10)">
<path d="M9.50122 16.2291C8.57047 16.2291 7.69562 16.0525 6.87667 15.6993C6.05772 15.3461 5.34537 14.8667 4.73963 14.2612C4.13388 13.6557 3.65428 12.9436 3.30082 12.125C2.94748 11.3064 2.77081 10.4318 2.77081 9.5012C2.77081 8.57045 2.94748 7.6956 3.30082 6.87665C3.65405 6.0577 4.13347 5.34535 4.73909 4.73961C5.34472 4.13386 6.05689 3.65426 6.8756 3.3008C7.69432 2.94746 8.56911 2.77079 9.49998 2.77079C9.98944 2.77079 10.4635 2.81984 10.9221 2.91795C11.3807 3.01605 11.8192 3.15955 12.2379 3.34844V4.54021C11.8338 4.31779 11.4015 4.14437 10.9411 4.01994C10.4807 3.89551 10.0003 3.83329 9.49998 3.83329C7.92984 3.83329 6.59286 4.3852 5.48904 5.48902C4.38522 6.59284 3.83331 7.92982 3.83331 9.49996C3.83331 11.0701 4.38522 12.4071 5.48904 13.5109C6.59286 14.6147 7.92984 15.1666 9.49998 15.1666C11.0701 15.1666 12.4071 14.6147 13.5109 13.5109C14.6147 12.4071 15.1666 11.0701 15.1666 9.49996C15.1666 9.14036 15.1328 8.79139 15.0652 8.45304C14.9975 8.11481 14.9033 7.78727 14.7826 7.47041H15.924C16.0257 7.79459 16.1019 8.12343 16.1528 8.45694C16.2037 8.79044 16.2291 9.13812 16.2291 9.49996C16.2291 10.4308 16.0525 11.3056 15.6993 12.1243C15.3461 12.943 14.8667 13.6552 14.2612 14.2608C13.6557 14.8665 12.9437 15.3459 12.1251 15.6991C11.3065 16.0525 10.4319 16.2291 9.50122 16.2291ZM15.3437 5.78121V4.36454H13.9271V3.30204H15.3437V1.88538H16.4062V3.30204H17.8229V4.36454H16.4062V5.78121H15.3437ZM11.9126 8.65545C12.1704 8.65545 12.389 8.5652 12.5683 8.38469C12.7476 8.2043 12.8373 7.98525 12.8373 7.72753C12.8373 7.46982 12.7471 7.2513 12.5667 7.07197C12.3863 6.89253 12.1672 6.8028 11.9094 6.8028C11.6517 6.8028 11.4331 6.89306 11.2538 7.07356C11.0745 7.25395 10.9848 7.473 10.9848 7.73072C10.9848 7.98844 11.075 8.20696 11.2554 8.38628C11.4358 8.56573 11.6548 8.65545 11.9126 8.65545ZM7.09058 8.65545C7.3483 8.65545 7.56682 8.5652 7.74615 8.38469C7.92547 8.2043 8.01514 7.98525 8.01514 7.72753C8.01514 7.46982 7.92494 7.2513 7.74455 7.07197C7.56416 6.89253 7.34511 6.8028 7.0874 6.8028C6.82956 6.8028 6.61098 6.89306 6.43166 7.07356C6.25233 7.25395 6.16267 7.473 6.16267 7.73072C6.16267 7.98844 6.25286 8.20696 6.43325 8.38628C6.61364 8.56573 6.83275 8.65545 7.09058 8.65545ZM9.49998 13.1778C10.2459 13.1778 10.9231 12.971 11.5318 12.5573C12.1406 12.1436 12.5903 11.5967 12.8809 10.9166H6.1191C6.40964 11.5967 6.85931 12.1436 7.46813 12.5573C8.07682 12.971 8.7541 13.1778 9.49998 13.1778Z" fill="#AEAEAE"/>
</g>
</svg>
