<svg width="19" height="19" viewBox="0 0 19 19" fill="none" xmlns="http://www.w3.org/2000/svg">
<mask id="mask0_403_81" style="mask-type:alpha" maskUnits="userSpaceOnUse" x="0" y="0" width="19" height="19">
<rect width="19" height="19" fill="#AEAEAE"/>
</mask>
<g mask="url(#mask0_403_81)">
<path d="M7.59961 14.1184V13.0921H15.5V14.1184H7.59961ZM7.59961 10.0132V8.98686H15.5V10.0132H7.59961ZM7.59961 5.90791V4.88159H15.5V5.90791H7.59961Z" fill="#AEAEAE"/>
<path d="M3 12.3971V14.5H6V13.5341H3.96872V12.6776H5.31261C5.50735 12.6776 5.67059 12.6119 5.80236 12.4806C5.93412 12.3491 6 12.1863 6 11.9922V10.5747C6 10.3806 5.93412 10.2178 5.80236 10.0863C5.67059 9.95496 5.50735 9.88929 5.31261 9.88929H3V10.8552H5.03128V11.7117H3.68759C3.49272 11.7117 3.32941 11.7774 3.19764 11.9087C3.06588 12.0402 3 12.203 3 12.3971Z" fill="#AEAEAE"/>
<path d="M4.21877 5.46568V9.11051H5.18749V4.5H3V5.46568H4.21877Z" fill="#AEAEAE"/>
</g>
</svg>
