<svg width="19" height="19" viewBox="0 0 19 19" fill="none" xmlns="http://www.w3.org/2000/svg">
<mask id="mask0_412_18" style="mask-type:alpha" maskUnits="userSpaceOnUse" x="1" y="0" width="18" height="18">
<rect x="1" y="0.5" width="17.5" height="17.5" fill="#AEAEAE"/>
</mask>
<g mask="url(#mask0_412_18)">
<path d="M8.72555 16.1771C8.4227 16.1771 8.1647 16.0705 7.95154 15.8574C7.73838 15.6442 7.6318 15.3862 7.6318 15.0834V11.725H5.32508C4.95685 11.725 4.64391 11.5974 4.38628 11.3422C4.12876 11.087 4 10.7775 4 10.4138V5.45692C4 4.79508 4.23649 4.22882 4.70948 3.75814C5.18259 3.28746 5.75237 3.05212 6.41883 3.05212H14.9375V10.4138C14.9375 10.7775 14.8075 11.087 14.5476 11.3422C14.2878 11.5974 13.9737 11.725 13.6053 11.725H11.2986V15.0834C11.2986 15.3862 11.1921 15.6442 10.979 15.8574C10.7659 16.0705 10.5078 16.1771 10.2048 16.1771H8.72555ZM5.09375 7.95996H13.8438V4.14587H12.8833V6.95736H11.7895V4.14587H10.7517V5.59017H9.65815V4.14587H6.41883C6.05048 4.14587 5.73754 4.27232 5.48003 4.52522C5.22251 4.778 5.09375 5.08856 5.09375 5.45692V7.95996ZM5.32508 10.6313H13.6053C13.6708 10.6313 13.7269 10.6102 13.7736 10.5682C13.8204 10.5261 13.8438 10.4747 13.8438 10.4138V9.05371H5.09375V10.4138C5.09375 10.4747 5.11593 10.5261 5.16029 10.5682C5.20477 10.6102 5.2597 10.6313 5.32508 10.6313Z" fill="#AEAEAE"/>
</g>
</svg>
