<svg width="19" height="19" viewBox="0 0 19 19" fill="none" xmlns="http://www.w3.org/2000/svg">
<path fill-rule="evenodd" clip-rule="evenodd" d="M4.72581 14.1211C4.31236 14.1211 3.93715 14.0448 3.60016 13.8923C3.26317 13.7371 2.99557 13.5139 2.79734 13.2227C2.59911 12.9288 2.5 12.5739 2.5 12.158C2.5 11.7921 2.57363 11.4954 2.72088 11.268C2.86814 11.0379 3.06495 10.8577 3.31132 10.7274C3.55768 10.597 3.82954 10.5 4.12688 10.4362C4.42705 10.3697 4.72864 10.317 5.03165 10.2782C5.4281 10.2283 5.74951 10.1909 5.99588 10.1659C6.24508 10.1382 6.42632 10.0924 6.53959 10.0287C6.65569 9.96488 6.71375 9.85397 6.71375 9.69593V9.66266C6.71375 9.25231 6.59906 8.93346 6.36968 8.7061C6.14313 8.47874 5.79907 8.36506 5.33748 8.36506C4.8589 8.36506 4.48369 8.46765 4.21183 8.67283C3.93998 8.878 3.74883 9.09704 3.63839 9.32994L2.6869 8.99723C2.85681 8.60906 3.08335 8.30684 3.36654 8.09057C3.65255 7.87153 3.96405 7.71904 4.30104 7.63309C4.64085 7.54436 4.97501 7.5 5.3035 7.5C5.51305 7.5 5.75376 7.52495 6.02561 7.57486C6.3003 7.622 6.56507 7.72042 6.81994 7.87015C7.07763 8.01987 7.29144 8.24584 7.46135 8.54806C7.63125 8.85028 7.71621 9.25508 7.71621 9.76248V13.9713H6.71375V13.1063H6.66277C6.59481 13.2449 6.48154 13.3933 6.32295 13.5513C6.16437 13.7093 5.9534 13.8438 5.69004 13.9547C5.42668 14.0656 5.10527 14.1211 4.72581 14.1211ZM4.87873 13.2394C5.27518 13.2394 5.60934 13.1631 5.88119 13.0106C6.15588 12.8581 6.3626 12.6613 6.50136 12.4201C6.64295 12.1788 6.71375 11.9251 6.71375 11.659V10.7606C6.67127 10.8105 6.57782 10.8563 6.4334 10.8979C6.2918 10.9367 6.12756 10.9713 5.94066 11.0018C5.75659 11.0296 5.57677 11.0545 5.4012 11.0767C5.22846 11.0961 5.08828 11.1128 4.98067 11.1266C4.72015 11.1599 4.47661 11.214 4.25006 11.2888C4.02635 11.3609 3.84511 11.4704 3.70635 11.6174C3.57043 11.7616 3.50246 11.9584 3.50246 12.2079C3.50246 12.549 3.63131 12.8068 3.88901 12.9815C4.14953 13.1534 4.47944 13.2394 4.87873 13.2394Z" fill="#AEAEAE"/>
<path fill-rule="evenodd" clip-rule="evenodd" d="M10.0022 12.9254C10.2694 13.3077 10.6285 13.6001 11.0771 13.8028C11.5243 14.0013 12.0174 14.1 12.5535 14.1C13.0455 14.1 13.4789 14.0256 13.8513 13.8737C14.2189 13.7238 14.5277 13.5306 14.7756 13.2926C14.9477 13.1275 15.0912 12.9574 15.2053 12.7822V13.9132H16.4111V8.24437C16.4111 7.68535 16.3132 7.21567 16.111 6.8409C15.9119 6.46829 15.6504 6.17562 15.326 5.96616C15.0071 5.7568 14.6609 5.6098 14.2878 5.52532C13.9234 5.44197 13.5713 5.40002 13.2316 5.40002C12.7817 5.40002 12.3376 5.46179 11.8995 5.5852C11.4577 5.70609 11.058 5.90592 10.701 6.18451C10.3397 6.4629 10.0587 6.83473 9.85696 7.29668L9.81346 7.39627L10.9575 7.78645L10.9948 7.70336C11.1437 7.37167 11.4042 7.07916 11.7836 6.82751C12.1583 6.58141 12.6479 6.4543 13.2598 6.4543C13.9035 6.4543 14.3805 6.61236 14.7063 6.91359L14.7071 6.91432C15.0366 7.21244 15.2053 7.62309 15.2053 8.15894V8.35115C15.2053 8.43985 15.1864 8.51052 15.1529 8.56716C15.1194 8.62362 15.068 8.67205 14.9934 8.71102C14.8318 8.79548 14.5873 8.86121 14.253 8.90334C13.9181 8.946 13.5079 8.99579 13.0221 9.05271C12.5288 9.11009 12.0761 9.19089 11.6644 9.29537C11.25 9.4005 10.8884 9.5444 10.581 9.72827C10.2701 9.91421 10.0277 10.1538 9.85657 10.4471C9.68361 10.7436 9.59998 11.1037 9.59998 11.5226C9.59998 12.0662 9.73264 12.5358 10.0022 12.9254ZM15.2053 10.6684C15.2053 11.1001 15.1022 11.4939 14.8965 11.8519C14.6949 12.2056 14.4067 12.4907 14.0295 12.7066C13.6554 12.9207 13.2098 13.0297 12.6891 13.0297C12.1365 13.0297 11.6855 12.8986 11.3294 12.6429C10.9808 12.3891 10.8058 12.0342 10.8058 11.5654C10.8058 11.2539 10.8926 11.0077 11.0583 10.8192C11.2285 10.6223 11.4775 10.4633 11.8123 10.3463C12.1501 10.2284 12.5608 10.1406 13.0455 10.0843C13.2266 10.0629 13.4303 10.0379 13.6565 10.0094C13.8841 9.98075 14.1116 9.94671 14.3392 9.90729L14.3404 9.90707C14.5728 9.86387 14.7781 9.815 14.9559 9.76025C15.0499 9.73189 15.1336 9.70058 15.2053 9.6655V10.6684Z" fill="#AEAEAE"/>
</svg>
