<svg width="19" height="19" viewBox="0 0 19 19" fill="none" xmlns="http://www.w3.org/2000/svg">
<mask id="mask0_408_72" style="mask-type:alpha" maskUnits="userSpaceOnUse" x="1" y="1" width="18" height="17">
<rect x="1.5" y="1" width="17" height="17" fill="white"/>
</mask>
<g mask="url(#mask0_408_72)">
<path d="M9.53039 16.2292C8.59964 16.2292 7.72479 16.0526 6.90584 15.6994C6.08689 15.3462 5.37454 14.8668 4.7688 14.2613C4.16306 13.6558 3.68346 12.9437 3.33 12.1251C2.97666 11.3065 2.79999 10.4319 2.79999 9.50128C2.79999 8.57053 2.9766 7.69568 3.32982 6.87673C3.68304 6.05778 4.16241 5.34543 4.76791 4.73969C5.37342 4.13394 6.08547 3.65434 6.90407 3.30088C7.72267 2.94754 8.59728 2.77087 9.52791 2.77087C10.4587 2.77087 11.3335 2.94748 12.1525 3.30071C12.9714 3.65393 13.6838 4.13329 14.2895 4.7388C14.8953 5.34431 15.3749 6.05636 15.7283 6.87496C16.0817 7.69355 16.2583 8.56817 16.2583 9.4988C16.2583 10.4296 16.0817 11.3044 15.7285 12.1234C15.3753 12.9423 14.8959 13.6547 14.2904 14.2604C13.6849 14.8661 12.9728 15.3457 12.1542 15.6992C11.3356 16.0525 10.461 16.2292 9.53039 16.2292ZM9.52915 15.1667C11.1111 15.1667 12.451 14.6177 13.5489 13.5198C14.6469 12.4219 15.1958 11.082 15.1958 9.50004C15.1958 7.9181 14.6469 6.57817 13.5489 5.48025C12.451 4.38233 11.1111 3.83337 9.52915 3.83337C7.94721 3.83337 6.60728 4.38233 5.50936 5.48025C4.41145 6.57817 3.86249 7.9181 3.86249 9.50004C3.86249 11.082 4.41145 12.4219 5.50936 13.5198C6.60728 14.6177 7.94721 15.1667 9.52915 15.1667ZM7.44506 12.851H11.6132V11.7885H10.0604V7.07542H11.6132V6.01292H7.44506V7.07542H8.9979V11.7885H7.44506V12.851Z" fill="#AEAEAE"/>
</g>
</svg>
