<svg width="19" height="19" viewBox="0 0 19 19" fill="none" xmlns="http://www.w3.org/2000/svg">
<path d="M7.66471 11.9882L8.47051 11.1705L6.80001 9.5L8.46325 7.83677L7.65744 7.0191L5.17654 9.5L7.66471 11.9882ZM11.3353 11.9882L13.8235 9.5L11.3353 7.01184L10.5295 7.8295L12.2 9.5L10.5295 11.1705L11.3353 11.9882ZM4.3824 16C3.99609 16 3.66912 15.8662 3.40147 15.5985C3.13382 15.3309 3 15.0039 3 14.6176V4.3824C3 3.99609 3.13382 3.66912 3.40147 3.40147C3.66912 3.13382 3.99609 3 4.3824 3H14.6176C15.0039 3 15.3309 3.13382 15.5985 3.40147C15.8662 3.66912 16 3.99609 16 4.3824V14.6176C16 15.0039 15.8662 15.3309 15.5985 15.5985C15.3309 15.8662 15.0039 16 14.6176 16H4.3824ZM4.3824 14.8529H14.6176C14.6765 14.8529 14.7304 14.8284 14.7793 14.7793C14.8284 14.7304 14.8529 14.6765 14.8529 14.6176V4.3824C14.8529 4.32351 14.8284 4.2696 14.7793 4.22066C14.7304 4.17159 14.6765 4.14706 14.6176 4.14706H4.3824C4.32351 4.14706 4.2696 4.17159 4.22066 4.22066C4.17159 4.2696 4.14706 4.32351 4.14706 4.3824V14.6176C4.14706 14.6765 4.17159 14.7304 4.22066 14.7793C4.2696 14.8284 4.32351 14.8529 4.3824 14.8529Z" fill="#AEAEAE"/>
</svg>
