<svg width="18" height="18" viewBox="0 0 18 18" fill="none" xmlns="http://www.w3.org/2000/svg">
<mask id="mask0_419_161" style="mask-type:alpha" maskUnits="userSpaceOnUse" x="0" y="0" width="18" height="17">
<rect x="0.5" width="17" height="17" fill="#AEAEAE"/>
</mask>
<g mask="url(#mask0_419_161)">
<path d="M5.30767 13.269C4.80556 13.269 4.37878 13.0933 4.02733 12.7418C3.67578 12.3904 3.5 11.9636 3.5 11.4613C3.5 10.9592 3.67578 10.5324 4.02733 10.181C4.37878 9.82944 4.80556 9.65367 5.30767 9.65367C5.80978 9.65367 6.23661 9.82944 6.58817 10.181C6.93961 10.5324 7.11533 10.9592 7.11533 11.4613C7.11533 11.9636 6.93961 12.3904 6.58817 12.7418C6.23661 13.0933 5.80978 13.269 5.30767 13.269ZM12.6923 13.269C12.1902 13.269 11.7634 13.0933 11.4118 12.7418C11.0604 12.3904 10.8847 11.9636 10.8847 11.4613C10.8847 10.9592 11.0604 10.5324 11.4118 10.181C11.7634 9.82944 12.1902 9.65367 12.6923 9.65367C13.1944 9.65367 13.6212 9.82944 13.9727 10.181C14.3242 10.5324 14.5 10.9592 14.5 11.4613C14.5 11.9636 14.3242 12.3904 13.9727 12.7418C13.6212 13.0933 13.1944 13.269 12.6923 13.269ZM9 7.11533C8.49789 7.11533 8.07106 6.93956 7.7195 6.588C7.36806 6.23656 7.19233 5.80978 7.19233 5.30767C7.19233 4.80544 7.36806 4.37861 7.7195 4.02717C8.07106 3.67572 8.49789 3.5 9 3.5C9.50211 3.5 9.92895 3.67572 10.2805 4.02717C10.6319 4.37861 10.8077 4.80544 10.8077 5.30767C10.8077 5.80978 10.6319 6.23656 10.2805 6.588C9.92895 6.93956 9.50211 7.11533 9 7.11533Z" fill="#AEAEAE"/>
</g>
</svg>
