<svg width="19" height="19" viewBox="0 0 19 19" fill="none" xmlns="http://www.w3.org/2000/svg">
<path fill-rule="evenodd" clip-rule="evenodd" d="M4 12.4819H5.09276L5.95812 10.0798H9.43906L10.3044 12.4819H11.3972L8.23657 4H7.16061L4 12.4819ZM9.11082 9.16867H6.28636L7.66497 5.34187H7.73221L9.11082 9.16867Z" fill="#AEAEAE"/>
<path fill-rule="evenodd" clip-rule="evenodd" d="M13.9736 14.8178C14.3182 14.9393 14.7301 15 15.2092 15C15.7248 15 16.1927 14.9185 16.613 14.7556C17.0361 14.5955 17.3724 14.3429 17.6217 13.9977C17.8739 13.6554 18 13.2108 18 12.6642V6.12048H17.0417V7.13102H16.9409C16.868 7.02058 16.7643 6.87977 16.6298 6.70858C16.4981 6.53464 16.3076 6.38002 16.0582 6.24473C15.8117 6.10668 15.4782 6.03765 15.0579 6.03765C14.5144 6.03765 14.0352 6.17156 13.6205 6.43938C13.2058 6.70444 12.8822 7.07994 12.6497 7.56589C12.4171 8.04907 12.3008 8.61647 12.3008 9.26807C12.3008 9.93072 12.4199 10.494 12.6581 10.9578C12.899 11.4217 13.2255 11.7751 13.6373 12.0181C14.052 12.261 14.52 12.3825 15.0411 12.3825C15.4614 12.3825 15.7949 12.3176 16.0414 12.1879C16.2908 12.0553 16.4813 11.9049 16.613 11.7364C16.7475 11.5653 16.8512 11.4217 16.924 11.3057H17.0081V12.5979C17.0081 13.128 16.8386 13.5173 16.4995 13.7658C16.1605 14.0143 15.7304 14.1386 15.2092 14.1386C14.8198 14.1386 14.5046 14.082 14.2636 13.9687C14.0254 13.8583 13.8377 13.7272 13.7004 13.5753C13.5631 13.4262 13.4496 13.2937 13.36 13.1777L12.5698 13.7244C12.7043 13.9453 12.885 14.1524 13.112 14.3456C13.3417 14.5417 13.6289 14.699 13.9736 14.8178ZM16.1843 11.2353C15.9097 11.4148 15.5735 11.5045 15.1756 11.5045C14.7609 11.5045 14.4135 11.4093 14.1333 11.2188C13.8559 11.0255 13.6458 10.7604 13.5029 10.4236C13.3628 10.084 13.2927 9.69327 13.2927 9.25151C13.2927 8.82078 13.3614 8.42871 13.4986 8.0753C13.6387 7.72189 13.8475 7.44026 14.1249 7.23042C14.4051 7.02058 14.7553 6.91566 15.1756 6.91566C15.5791 6.91566 15.9181 7.01506 16.1927 7.21386C16.4673 7.41265 16.6747 7.68737 16.8148 8.03803C16.9549 8.38868 17.0249 8.79317 17.0249 9.25151C17.0249 9.72088 16.9535 10.124 16.8106 10.4608C16.6677 10.7977 16.4589 11.0558 16.1843 11.2353Z" fill="#AEAEAE"/>
</svg>
