<svg width="18" height="18" viewBox="0 0 18 18" fill="none" xmlns="http://www.w3.org/2000/svg">
<mask id="mask0_411_128" style="mask-type:alpha" maskUnits="userSpaceOnUse" x="-1" y="-1" width="20" height="20">
<rect x="-1" y="-1" width="20" height="20" fill="#AEAEAE"/>
</mask>
<g mask="url(#mask0_411_128)">
<path d="M7.52542 13.6V12.4H8.66788L10.9572 9.8L8.66788 7.2H7.2274L5.93604 13.9184C5.80784 14.6005 5.56551 15.118 5.20904 15.4708C4.85257 15.8236 4.39232 16 3.82829 16C3.29022 16 2.85102 15.8554 2.51069 15.5662C2.17023 15.2769 2 14.8938 2 14.417C2 14.057 2.0949 13.7675 2.28471 13.5484C2.47464 13.3295 2.71603 13.22 3.00888 13.22C3.28827 13.22 3.52623 13.3154 3.72276 13.5062C3.91942 13.697 4.01776 13.9267 4.01776 14.1954C4.01776 14.3031 3.99368 14.3977 3.94552 14.4792C3.89736 14.5608 3.83811 14.6247 3.76776 14.6708C3.79358 14.6964 3.82984 14.7182 3.87651 14.7362C3.92306 14.7541 3.97478 14.763 4.03168 14.763C4.20763 14.7549 4.35149 14.6747 4.46328 14.5224C4.57493 14.37 4.66492 14.1353 4.73325 13.8184L5.99213 7.2H3.64528V6H6.21711L6.6253 3.8124C6.72982 3.24933 6.96395 2.80647 7.32768 2.4838C7.69142 2.16127 8.13761 2 8.66626 2C9.19613 2 9.63122 2.15413 9.97155 2.4624C10.312 2.77053 10.4822 3.15893 10.4822 3.6276C10.4822 3.9712 10.3873 4.25253 10.1975 4.4716C10.0076 4.69053 9.76621 4.8 9.47337 4.8C9.19397 4.8 8.95601 4.70587 8.75948 4.5176C8.56282 4.32947 8.46449 4.09693 8.46449 3.82C8.46449 3.71227 8.48857 3.61767 8.53672 3.5362C8.58488 3.4546 8.64669 3.39073 8.72215 3.3446C8.69633 3.3138 8.65624 3.28813 8.6019 3.2676C8.54755 3.2472 8.49193 3.237 8.43503 3.237C8.26634 3.2534 8.1321 3.32673 8.03228 3.457C7.93247 3.58727 7.85613 3.78007 7.80327 4.0354L7.46025 6H11.1574V7.2H10.2712L11.7627 8.8878L13.2544 7.2H12.368V6H16V7.2H14.8577L12.5684 9.8L14.8654 12.4H16V13.6H12.368V12.4H13.2544L11.7627 10.7L10.2712 12.4H11.1574V13.6H7.52542Z" fill="#AEAEAE"/>
</g>
</svg>
