<svg width="19" height="19" viewBox="0 0 19 19" fill="none" xmlns="http://www.w3.org/2000/svg">
<mask id="mask0_403_75" style="mask-type:alpha" maskUnits="userSpaceOnUse" x="0" y="0" width="19" height="19">
<rect width="19" height="19" fill="#AEAEAE"/>
</mask>
<g mask="url(#mask0_403_75)">
<path d="M5.97198 14.93V3.98132H10.1241C10.9946 3.98132 11.7816 4.24354 12.4853 4.76797C13.1887 5.29227 13.5405 5.99835 13.5405 6.88623C13.5405 7.50376 13.3863 8.00719 13.078 8.39652C12.7698 8.78585 12.4378 9.06845 12.0819 9.24432C12.5199 9.39044 12.9382 9.67937 13.3368 10.1111C13.7354 10.5429 13.9346 11.1242 13.9346 11.8551C13.9346 12.9112 13.5322 13.6877 12.7274 14.1846C11.9226 14.6815 11.1117 14.93 10.2949 14.93H5.97198ZM7.80827 13.2838H10.226C10.8983 13.2838 11.3735 13.1031 11.6517 12.7419C11.9298 12.3807 12.0689 12.0342 12.0689 11.7026C12.0689 11.371 11.9298 11.0245 11.6517 10.6633C11.3735 10.3021 10.8851 10.1215 10.1865 10.1215H7.80827V13.2838ZM7.80827 8.52605H10.024C10.543 8.52605 10.9544 8.38248 11.2584 8.09533C11.5621 7.80833 11.714 7.46458 11.714 7.06409C11.714 6.63826 11.5534 6.29025 11.2321 6.02004C10.9107 5.74998 10.5167 5.61495 10.0503 5.61495H7.80827V8.52605Z" fill="#AEAEAE"/>
</g>
</svg>
