<svg width="19" height="19" viewBox="0 0 19 19" fill="none" xmlns="http://www.w3.org/2000/svg">
<path fill-rule="evenodd" clip-rule="evenodd" d="M2 13.8802H3.13949L4.04185 11.3992H7.67163L8.57399 13.8802H9.71348L6.41772 5.11977H5.29576L2 13.8802ZM7.32936 10.4582L5.8918 6.5057H5.82168L4.38413 10.4582H7.32936Z" fill="#AEAEAE"/>
<path d="M16.4442 7.08317C16.6019 7.31131 16.729 7.56939 16.8254 7.85741H17.9474C17.8656 7.43251 17.7166 7.0461 17.5004 6.69819C17.2842 6.34743 17.0139 6.04658 16.6896 5.79563C16.3682 5.54182 16.0015 5.34648 15.5895 5.2096C15.1805 5.06987 14.7393 5 14.266 5C13.6904 5 13.163 5.10409 12.6838 5.31226C12.2047 5.52044 11.7898 5.81987 11.4392 6.21055C11.0885 6.60124 10.8168 7.07462 10.624 7.6307C10.4341 8.18393 10.3391 8.80703 10.3391 9.5C10.3391 10.424 10.5056 11.2224 10.8387 11.8954C11.1747 12.5684 11.6422 13.0875 12.2412 13.4525C12.8431 13.8175 13.5414 14 14.3361 14C15.049 14 15.6801 13.8546 16.2294 13.5637C16.7816 13.27 17.214 12.8565 17.5267 12.3232C17.8422 11.7899 18 11.1625 18 10.4411V9.5H14.5815V10.4411H16.9476C16.9385 10.9485 16.8276 11.392 16.6151 11.7714C16.3959 12.1649 16.0892 12.4701 15.6947 12.6868C15.3032 12.9007 14.8503 13.0076 14.3361 13.0076C13.781 13.0076 13.2813 12.8736 12.8372 12.6055C12.3931 12.3375 12.041 11.9425 11.781 11.4206C11.521 10.8988 11.3909 10.2586 11.3909 9.5C11.3909 8.74144 11.5195 8.10124 11.7766 7.57937C12.0337 7.05751 12.38 6.66255 12.8153 6.39449C13.2507 6.12643 13.7342 5.9924 14.266 5.9924C14.5903 5.9924 14.8883 6.03517 15.16 6.12072C15.4318 6.20627 15.6743 6.33032 15.8876 6.49287C16.1038 6.65542 16.2893 6.85219 16.4442 7.08317Z" fill="#AEAEAE"/>
</svg>
