<svg width="19" height="19" viewBox="0 0 19 19" fill="none" xmlns="http://www.w3.org/2000/svg">
<path d="M12.008 12.375H14.9767V13.625H10.758L12.008 12.375ZM4.19548 13.625L2.86735 12.2969C2.62777 12.0573 2.50537 11.7604 2.50017 11.4062C2.49496 11.0521 2.61215 10.75 2.85173 10.5L9.72673 3.375C9.96631 3.125 10.2606 3 10.6095 3C10.9585 3 11.2528 3.11979 11.4924 3.35937L14.6017 6.46875C14.8413 6.70833 14.9611 7.00521 14.9611 7.35937C14.9611 7.71354 14.8413 8.01042 14.6017 8.25L9.35173 13.625H4.19548ZM8.82048 12.375L13.7267 7.34375L10.633 4.25L3.72673 11.375L4.72673 12.375H8.82048Z" fill="#AEAEAE"/>
</svg>
