<svg width="19" height="19" viewBox="0 0 19 19" fill="none" xmlns="http://www.w3.org/2000/svg">
<mask id="mask0_403_80" style="mask-type:alpha" maskUnits="userSpaceOnUse" x="0" y="0" width="19" height="19">
<rect width="19" height="19" fill="#AEAEAE"/>
</mask>
<g mask="url(#mask0_403_80)">
<path d="M7.59959 14.3444V13.2679H15.5V14.3444H7.59959ZM7.59959 10.0383V8.96173H15.5V10.0383H7.59959ZM7.59959 5.73214V4.65561H15.5V5.73214H7.59959ZM4.67424 15C4.35129 15 4.07488 14.8831 3.845 14.6492C3.615 14.4155 3.5 14.1345 3.5 13.8061C3.5 13.4778 3.615 13.1967 3.845 12.963C4.07488 12.7292 4.35129 12.6123 4.67424 12.6123C4.99718 12.6123 5.27359 12.7292 5.50347 12.963C5.73347 13.1967 5.84847 13.4778 5.84847 13.8061C5.84847 14.1345 5.73347 14.4155 5.50347 14.6492C5.27359 14.8831 4.99718 15 4.67424 15ZM4.67424 10.6939C4.35129 10.6939 4.07488 10.577 3.845 10.3431C3.615 10.1094 3.5 9.82834 3.5 9.5C3.5 9.17166 3.615 8.89062 3.845 8.6569C4.07488 8.42305 4.35129 8.30613 4.67424 8.30613C4.99718 8.30613 5.27359 8.42305 5.50347 8.6569C5.73347 8.89062 5.84847 9.17166 5.84847 9.5C5.84847 9.82834 5.73347 10.1094 5.50347 10.3431C5.27359 10.577 4.99718 10.6939 4.67424 10.6939ZM4.67424 6.38775C4.35129 6.38775 4.07488 6.27082 3.845 6.03698C3.615 5.80325 3.5 5.52222 3.5 5.19387C3.5 4.86553 3.615 4.5845 3.845 4.35077C4.07488 4.11692 4.35129 4 4.67424 4C4.99718 4 5.27359 4.11692 5.50347 4.35077C5.73347 4.5845 5.84847 4.86553 5.84847 5.19387C5.84847 5.52222 5.73347 5.80325 5.50347 6.03698C5.27359 6.27082 4.99718 6.38775 4.67424 6.38775Z" fill="#AEAEAE"/>
</g>
</svg>
