<svg width="19" height="19" viewBox="0 0 19 19" fill="none" xmlns="http://www.w3.org/2000/svg">
<path fill-rule="evenodd" clip-rule="evenodd" d="M7.31484 12.6211C6.88486 12.6211 6.49463 12.5448 6.14417 12.3923C5.7937 12.2371 5.51539 12.0139 5.30923 11.7227C5.10308 11.4288 5 11.0739 5 10.658C5 10.2921 5.07657 9.99538 5.22972 9.76802C5.38286 9.53789 5.58755 9.35767 5.84377 9.22736C6.09999 9.09704 6.38272 9 6.69195 8.93623C7.00413 8.86969 7.31779 8.81701 7.63291 8.77819C8.04522 8.72828 8.37949 8.69085 8.63571 8.6659C8.89488 8.63817 9.08337 8.59242 9.20117 8.52865C9.32192 8.46488 9.38229 8.35397 9.38229 8.19593V8.16266C9.38229 7.75231 9.26302 7.43346 9.02447 7.2061C8.78886 6.97874 8.43103 6.86506 7.95098 6.86506C7.45326 6.86506 7.06304 6.96765 6.78031 7.17283C6.49758 7.378 6.29879 7.59704 6.18393 7.82994L5.19438 7.49723C5.37108 7.10906 5.60669 6.80684 5.9012 6.59057C6.19865 6.37153 6.52261 6.21904 6.87308 6.13309C7.22649 6.04436 7.57401 6 7.91564 6C8.13358 6 8.38391 6.02495 8.66664 6.07486C8.95231 6.122 9.22768 6.22042 9.49274 6.37015C9.76074 6.51987 9.98309 6.74584 10.1598 7.04806C10.3365 7.35028 10.4249 7.75508 10.4249 8.26248V12.4713H9.38229V11.6063H9.32928C9.2586 11.7449 9.1408 11.8933 8.97587 12.0513C8.81095 12.2093 8.59154 12.3438 8.31764 12.4547C8.04375 12.5656 7.70948 12.6211 7.31484 12.6211ZM7.47388 11.7394C7.88619 11.7394 8.23371 11.6631 8.51644 11.5106C8.80211 11.3581 9.0171 11.1613 9.16141 10.9201C9.30867 10.6788 9.38229 10.4251 9.38229 10.159V9.26063C9.33812 9.31054 9.24093 9.35628 9.09073 9.39787C8.94348 9.43669 8.77266 9.47135 8.57829 9.50185C8.38685 9.52957 8.19984 9.55453 8.01725 9.57671C7.8376 9.59612 7.69181 9.61275 7.5799 9.62662C7.30895 9.65989 7.05567 9.71396 6.82007 9.78882C6.5874 9.86091 6.39892 9.97043 6.25461 10.1174C6.11324 10.2616 6.04256 10.4584 6.04256 10.7079C6.04256 11.049 6.17656 11.3068 6.44457 11.4815C6.71552 11.6534 7.05862 11.7394 7.47388 11.7394Z" fill="#AEAEAE"/>
<path fill-rule="evenodd" clip-rule="evenodd" d="M15.0667 15C14.5631 15 14.1301 14.939 13.7679 14.817C13.4057 14.6978 13.1038 14.5397 12.8623 14.3429C12.6237 14.1488 12.4338 13.9409 12.2924 13.719L13.1229 13.1701C13.2172 13.2865 13.3364 13.4196 13.4808 13.5693C13.6251 13.7218 13.8224 13.8535 14.0727 13.9644C14.326 14.0781 14.6573 14.1349 15.0667 14.1349C15.6145 14.1349 16.0665 14.0102 16.4229 13.7606C16.7793 13.5111 16.9574 13.1201 16.9574 12.5878V11.2902H16.8691C16.7925 11.4067 16.6835 11.5508 16.5422 11.7227C16.4038 11.8919 16.2035 12.043 15.9414 12.1761C15.6822 12.3064 15.3317 12.3715 14.89 12.3715C14.3422 12.3715 13.8504 12.2495 13.4145 12.0055C12.9816 11.7616 12.6385 11.4067 12.3852 10.9409C12.1349 10.475 12.0097 9.90943 12.0097 9.24399C12.0097 8.58965 12.1319 8.01987 12.3763 7.53466C12.6208 7.04667 12.9609 6.66959 13.3968 6.40342C13.8327 6.13447 14.3363 6 14.9077 6C15.3494 6 15.6999 6.06932 15.9591 6.20795C16.2212 6.34381 16.4214 6.49908 16.5598 6.67375C16.7012 6.84566 16.8102 6.98706 16.8868 7.09797H16.9928V6.08318H18V12.6543C18 13.2033 17.8675 13.6497 17.6024 13.9935C17.3403 14.3401 16.9869 14.5938 16.5422 14.7546C16.1004 14.9182 15.6086 15 15.0667 15ZM15.0313 11.4898C15.4496 11.4898 15.803 11.3997 16.0916 11.2195C16.3802 11.0393 16.5996 10.78 16.7498 10.4418C16.9 10.1035 16.9751 9.69871 16.9751 9.22736C16.9751 8.7671 16.9015 8.36091 16.7542 8.00878C16.607 7.65665 16.389 7.38078 16.1004 7.18115C15.8118 6.98152 15.4554 6.8817 15.0313 6.8817C14.5896 6.8817 14.2214 6.98706 13.9269 7.19778C13.6354 7.4085 13.416 7.69131 13.2687 8.04621C13.1244 8.40111 13.0522 8.79482 13.0522 9.22736C13.0522 9.67098 13.1259 10.0633 13.2731 10.4043C13.4233 10.7426 13.6442 11.0088 13.9358 11.2029C14.2303 11.3942 14.5955 11.4898 15.0313 11.4898Z" fill="#AEAEAE"/>
</svg>
