<svg width="19" height="19" viewBox="0 0 19 19" fill="none" xmlns="http://www.w3.org/2000/svg">
<path d="M4.93334 14.7333C4.58869 14.7333 4.29697 14.6139 4.05819 14.3751C3.8194 14.1364 3.70001 13.8446 3.70001 13.5V5.7334C3.70001 5.38875 3.8194 5.09704 4.05819 4.85825C4.29697 4.61947 4.58869 4.50007 4.93334 4.50007H14.0648C14.4095 4.50007 14.7012 4.61947 14.94 4.85825C15.1788 5.09704 15.2981 5.38875 15.2981 5.7334V13.5C15.2981 13.8446 15.1788 14.1364 14.94 14.3751C14.7012 14.6139 14.4095 14.7333 14.0648 14.7333H4.93334ZM4.93334 13.71H14.0648C14.1174 13.71 14.1654 13.6881 14.2091 13.6443C14.2529 13.6006 14.2748 13.5525 14.2748 13.5V5.7334C14.2748 5.68087 14.2529 5.63277 14.2091 5.5891C14.1654 5.54533 14.1174 5.52344 14.0648 5.52344H4.93334C4.8808 5.52344 4.83271 5.54533 4.78904 5.5891C4.74527 5.63277 4.72338 5.68087 4.72338 5.7334V13.5C4.72338 13.5525 4.74527 13.6006 4.78904 13.6443C4.83271 13.6881 4.8808 13.71 4.93334 13.71Z" fill="#AEAEAE"/>
<circle cx="11.5" cy="11" r="1.5" fill="#AEAEAE"/>
</svg>
