<svg width="19" height="19" viewBox="0 0 19 19" fill="none" xmlns="http://www.w3.org/2000/svg">
<path d="M5.7462 16C5.34727 16 5.00647 15.864 4.7238 15.5921C4.44127 15.3201 4.3 14.9921 4.3 14.6081V4.83591H3.5V3.68101H7.1V3H11.9V3.68101H15.5V4.83591H14.7V14.6081C14.7 14.9971 14.56 15.3263 14.28 15.5958C14 15.8653 13.6579 16 13.2538 16H5.7462ZM13.5 4.83591H5.5V14.6081C5.5 14.6773 5.52307 14.7341 5.5692 14.7785C5.61533 14.8229 5.67433 14.8451 5.7462 14.8451H13.2538C13.3154 14.8451 13.3718 14.8204 13.423 14.771C13.4743 14.7217 13.5 14.6674 13.5 14.6081V4.83591Z" fill="#AEAEAE"/>
<path d="M10.1067 12.2529H8.94631V8.83428L7.51518 10.2416L6.70001 9.42646L9.5265 6.59998L12.353 9.42646L11.5378 10.2416L10.1067 8.83428V12.2529Z" fill="#AEAEAE"/>
</svg>
