<svg width="19" height="19" viewBox="0 0 19 19" fill="none" xmlns="http://www.w3.org/2000/svg">
<path d="M4.14706 6.36757V14.6176C4.14706 14.6863 4.16911 14.7427 4.21321 14.7868C4.2573 14.8309 4.3137 14.8529 4.3824 14.8529H14.6176C14.6863 14.8529 14.7427 14.8309 14.7868 14.7868C14.8309 14.7427 14.8529 14.6863 14.8529 14.6176V6.36757H4.14706ZM4.44128 16C4.05982 16 3.72424 15.8552 3.43454 15.5655C3.14485 15.2758 3 14.9402 3 14.5587V5.68087C3 5.51722 3.02625 5.36109 3.07876 5.21249C3.13115 5.064 3.20978 4.92699 3.31468 4.80146L4.38832 3.50299C4.51374 3.33921 4.67056 3.21444 4.85881 3.12866C5.04705 3.04289 5.24607 3 5.45585 3H13.5294C13.7392 3 13.9394 3.04289 14.1301 3.12866C14.3208 3.21444 14.4789 3.33921 14.6044 3.50299L15.6853 4.81618C15.7902 4.94172 15.8689 5.07994 15.9212 5.23084C15.9737 5.38187 16 5.53927 16 5.70304V14.5587C16 14.9402 15.8552 15.2758 15.5655 15.5655C15.2758 15.8552 14.9402 16 14.5587 16H4.44128ZM4.44568 5.22071H14.5471L13.7131 4.22793C13.6887 4.20346 13.6605 4.18383 13.6286 4.16904C13.5968 4.15439 13.5637 4.14706 13.5294 4.14706H5.46331C5.42902 4.14706 5.39589 4.15439 5.3639 4.16904C5.33203 4.18383 5.30387 4.20346 5.2794 4.22793L4.44568 5.22071Z" fill="#AEAEAE"/>
<path d="M6.70598 10.7941L9.50002 8.00005L12.2941 10.7941L11.4883 11.5999L10.0736 10.1852L10.0736 13.5881L8.92649 13.5881L8.92649 10.1852L7.51179 11.5999L6.70598 10.7941Z" fill="#AEAEAE"/>
</svg>
