<svg width="19" height="19" viewBox="0 0 19 19" fill="none" xmlns="http://www.w3.org/2000/svg">
<mask id="mask0_123_38" style="mask-type:alpha" maskUnits="userSpaceOnUse" x="1" y="1" width="17" height="17">
<rect x="1.05566" y="1" width="16.6405" height="16.6405" fill="#D9D9D9"/>
</mask>
<g mask="url(#mask0_123_38)">
<path d="M5.95514 14V12.8214H11.1482C11.9033 12.8214 12.5532 12.5507 13.0977 12.0092C13.6423 11.4678 13.9146 10.7993 13.9146 10.0035C13.9146 9.20767 13.6423 8.54027 13.0977 8.00127C12.5532 7.4624 11.9033 7.19296 11.1482 7.19296H6.06784L8.08122 9.37941L7.31874 10.2074L4 6.60368L7.31874 3L8.08122 3.82795L6.06784 6.01439H11.1482C12.2066 6.01439 13.1132 6.39795 13.8679 7.16507C14.6226 7.93219 15 8.87832 15 10.0035C15 11.1286 14.6226 12.076 13.8679 12.8456C13.1132 13.6152 12.2066 14 11.1482 14H5.95514Z" fill="#AEAEAE"/>
</g>
</svg>
