<svg width="19" height="19" viewBox="0 0 19 19" fill="none" xmlns="http://www.w3.org/2000/svg">
<mask id="mask0_574_82" style="mask-type:alpha" maskUnits="userSpaceOnUse" x="0" y="0" width="19" height="19">
<rect width="19" height="19" fill="#AEAEAE"/>
</mask>
<g mask="url(#mask0_574_82)">
<path d="M9.5 8.73499C8.65781 8.73499 7.93689 8.43515 7.33722 7.83549C6.73741 7.23567 6.4375 6.51467 6.4375 5.67249C6.4375 4.8303 6.73741 4.10937 7.33722 3.5097C7.93689 2.90989 8.65781 2.60999 9.5 2.60999C10.3422 2.60999 11.0631 2.90989 11.6628 3.5097C12.2626 4.10937 12.5625 4.8303 12.5625 5.67249C12.5625 6.51467 12.2626 7.23567 11.6628 7.83549C11.0631 8.43515 10.3422 8.73499 9.5 8.73499ZM2.9375 15.3985V13.4532C2.9375 13.0247 3.05388 12.6279 3.28663 12.2628C3.51938 11.8976 3.83044 11.6169 4.21981 11.4206C5.0846 10.9966 5.95705 10.6787 6.83716 10.4666C7.71726 10.2546 8.60487 10.1485 9.5 10.1485C10.3951 10.1485 11.2827 10.2546 12.1628 10.4666C13.0429 10.6787 13.9154 10.9966 14.7802 11.4206C15.1696 11.6169 15.4806 11.8976 15.7134 12.2628C15.9461 12.6279 16.0625 13.0247 16.0625 13.4532V15.3985H2.9375ZM4.25 14.086H14.75V13.4532C14.75 13.276 14.6987 13.112 14.596 12.961C14.4933 12.8102 14.354 12.6871 14.178 12.5918C13.424 12.2205 12.6553 11.9392 11.8719 11.7478C11.0883 11.5566 10.2977 11.461 9.5 11.461C8.70229 11.461 7.91166 11.5566 7.12809 11.7478C6.34468 11.9392 5.57599 12.2205 4.82203 12.5918C4.64601 12.6871 4.50667 12.8102 4.404 12.961C4.30133 13.112 4.25 13.276 4.25 13.4532V14.086ZM9.5 7.42249C9.98125 7.42249 10.3932 7.25113 10.7359 6.90842C11.0786 6.56571 11.25 6.15374 11.25 5.67249C11.25 5.19124 11.0786 4.77926 10.7359 4.43655C10.3932 4.09384 9.98125 3.92249 9.5 3.92249C9.01875 3.92249 8.60677 4.09384 8.26406 4.43655C7.92135 4.77926 7.75 5.19124 7.75 5.67249C7.75 6.15374 7.92135 6.56571 8.26406 6.90842C8.60677 7.25113 9.01875 7.42249 9.5 7.42249Z" fill="#AEAEAE"/>
</g>
</svg>
