<svg width="19" height="19" viewBox="0 0 19 19" fill="none" xmlns="http://www.w3.org/2000/svg">
<path d="M4.23332 14.7336C3.88868 14.7336 3.59696 14.6143 3.35818 14.3755C3.11939 14.1367 3 13.845 3 13.5003V5.73332C3 5.38868 3.11939 5.09696 3.35818 4.85818C3.59696 4.61939 3.88868 4.5 4.23332 4.5H14.7293C15.0739 4.5 15.3657 4.61939 15.6044 4.85818C15.8432 5.09696 15.9626 5.38868 15.9626 5.73332V13.5003C15.9626 13.845 15.8432 14.1367 15.6044 14.3755C15.3657 14.6143 15.0739 14.7336 14.7293 14.7336H4.23332ZM9.99299 13.7103H11.9544V5.52336H9.99299V13.7103ZM7.00818 13.7103H8.96963V5.52336H7.00818V13.7103ZM4.23332 13.7103H5.98481V5.52336H4.23332C4.17204 5.52336 4.12172 5.54304 4.08238 5.58238C4.04304 5.62172 4.02336 5.67204 4.02336 5.73332V13.5003C4.02336 13.5616 4.04304 13.6119 4.08238 13.6513C4.12172 13.6906 4.17204 13.7103 4.23332 13.7103ZM12.9778 13.7103H14.7293C14.7906 13.7103 14.8409 13.6906 14.8802 13.6513C14.9196 13.6119 14.9393 13.5616 14.9393 13.5003V5.73332C14.9393 5.67204 14.9196 5.62172 14.8802 5.58238C14.8409 5.54304 14.7906 5.52336 14.7293 5.52336H12.9778V13.7103Z" fill="#AEAEAE"/>
</svg>
