<svg width="19" height="19" viewBox="0 0 19 19" fill="none" xmlns="http://www.w3.org/2000/svg">
<path d="M8.48184 7.38825C8.7624 7.66099 9.10179 7.79735 9.5 7.79735C9.89821 7.79735 10.2376 7.66099 10.5182 7.38825C10.7985 7.11577 10.9386 6.78585 10.9386 6.39848C10.9386 6.01138 10.7985 5.68145 10.5182 5.40871C10.2376 5.13624 9.89821 5 9.5 5C9.10179 5 8.7624 5.13624 8.48184 5.40871C8.20154 5.68145 8.0614 6.01138 8.0614 6.39848C8.0614 6.78585 8.20154 7.11577 8.48184 7.38825Z" fill="#AEAEAE"/>
<path d="M3.42044 7.38825C3.701 7.66099 4.04039 7.79735 4.4386 7.79735C4.83682 7.79735 5.1762 7.66099 5.45677 7.38825C5.73706 7.11577 5.87721 6.78585 5.87721 6.39848C5.87721 6.01138 5.73706 5.68145 5.45677 5.40871C5.1762 5.13624 4.83682 5 4.4386 5C4.04039 5 3.701 5.13624 3.42044 5.40871C3.14015 5.68145 3 6.01138 3 6.39848C3 6.78585 3.14015 7.11577 3.42044 7.38825Z" fill="#AEAEAE"/>
<path d="M13.5432 7.38825C13.8238 7.66099 14.1632 7.79735 14.5614 7.79735C14.9596 7.79735 15.299 7.66099 15.5796 7.38825C15.8598 7.11577 16 6.78585 16 6.39848C16 6.01138 15.8598 5.68145 15.5796 5.40871C15.299 5.13624 14.9596 5 14.5614 5C14.1632 5 13.8238 5.13624 13.5432 5.40871C13.2629 5.68145 13.1228 6.01138 13.1228 6.39848C13.1228 6.78585 13.2629 7.11577 13.5432 7.38825Z" fill="#AEAEAE"/>
<path d="M8.48184 13.5909C8.7624 13.8636 9.10179 14 9.5 14C9.89821 14 10.2376 13.8636 10.5182 13.5909C10.7985 13.3184 10.9386 12.9886 10.9386 12.6015C10.9386 12.2142 10.7985 11.8842 10.5182 11.6118C10.2376 11.339 9.89821 11.2026 9.5 11.2026C9.10179 11.2026 8.7624 11.339 8.48184 11.6118C8.20154 11.8842 8.0614 12.2142 8.0614 12.6015C8.0614 12.9886 8.20154 13.3184 8.48184 13.5909Z" fill="#AEAEAE"/>
<path d="M3.42044 13.5909C3.701 13.8636 4.04039 14 4.4386 14C4.83682 14 5.1762 13.8636 5.45677 13.5909C5.73706 13.3184 5.87721 12.9886 5.87721 12.6015C5.87721 12.2142 5.73706 11.8842 5.45677 11.6118C5.1762 11.339 4.83682 11.2026 4.4386 11.2026C4.04039 11.2026 3.701 11.339 3.42044 11.6118C3.14015 11.8842 3 12.2142 3 12.6015C3 12.9886 3.14015 13.3184 3.42044 13.5909Z" fill="#AEAEAE"/>
<path d="M13.5432 13.5909C13.8238 13.8636 14.1632 14 14.5614 14C14.9596 14 15.299 13.8636 15.5796 13.5909C15.8598 13.3184 16 12.9886 16 12.6015C16 12.2142 15.8598 11.8842 15.5796 11.6118C15.299 11.339 14.9596 11.2026 14.5614 11.2026C14.1632 11.2026 13.8238 11.339 13.5432 11.6118C13.2629 11.8842 13.1228 12.2142 13.1228 12.6015C13.1228 12.9886 13.2629 13.3184 13.5432 13.5909Z" fill="#AEAEAE"/>
</svg>
